<svg xmlns="http://www.w3.org/2000/svg" viewBox="0 0 225.025 221.629"><g transform="translate(-50 -58.299)"><circle cx="110.815" cy="110.815" r="110.815" transform="translate(51.103 58.299)" fill="#fc523a"/><g transform="translate(50 96.236)"><path d="M74.725,274.76s38.339-20.065,106.1-17.158,109.9,4.071,110.773,20.938c0,4.071-8.882,85.788-8.882,85.788s-109.374-11.341-164.918,0c-26.172-6.107-43.07-36.06-43.07-36.06Z" transform="translate(-69.667 -254.539)" fill="#278eb3"/><path d="M119.922,385.161l-1.548,101.945s-43.983-1.563-56.107-14.36c-2.357-5.725-1.551-21.433-1.551-21.433V368.178S72.223,383,119.922,385.161Z" transform="translate(-58.418 -342.724)" fill="#7fe2ff"/><path d="M864.484,388.379s41.422-3.368,55.23-15.491c.337,23.574.337,101.7.337,101.7s-3.368,8.756-55.9,16.838C863.137,464.489,864.484,388.379,864.484,388.379Z" transform="translate(-697.3 -346.47)" fill="#7fe2ff"/><path d="M1098.01,467.932a5.121,5.121,0,0,1-5.121-5.121V362.964a5.12,5.12,0,1,1,10.241,0v99.848A5.121,5.121,0,0,1,1098.01,467.932Z" transform="translate(-879.547 -334.503)" fill="#fff"/><path d="M297.038,547.194a5.121,5.121,0,0,1-5.121-5.12V446.4a5.12,5.12,0,1,1,10.241,0v95.676A5.121,5.121,0,0,1,297.038,547.194Z" transform="translate(-242.429 -400.869)" fill="#fff"/><path d="M767.344,280.834c2.483-1.22,4.962-2.451,7.368-3.822a10.858,10.858,0,0,1,1.792-.812,24.033,24.033,0,0,0-4.482-5.953c-5.321-5.116-12.173-7.586-18.179-9.5a227.347,227.347,0,0,0-64.819-10.7,5.121,5.121,0,0,0-.19,10.239,217.091,217.091,0,0,1,61.9,10.215c4.906,1.564,10.453,3.531,14.189,7.124A13.555,13.555,0,0,1,767.344,280.834Z" transform="translate(-554.152 -248.761)" fill="#63efff"/><path d="M819.066,531.956a5.12,5.12,0,0,1-5.114-4.943l-1.778-51.2a5.12,5.12,0,1,1,10.234-.355l1.778,51.2a5.12,5.12,0,0,1-4.939,5.295C819.187,531.955,819.126,531.956,819.066,531.956Z" transform="translate(-656.255 -424.123)" fill="#63efff"/><path d="M681.3,384.034c-.129,0-.259-.005-.39-.014a5.121,5.121,0,0,1-4.722-5.491,15.094,15.094,0,0,0-4.016-11.322,5.12,5.12,0,1,1,7.444-7.032A25.5,25.5,0,0,1,686.4,379.3,5.121,5.121,0,0,1,681.3,384.034Z" transform="translate(-543.784 -335.083)" fill="#fcd290"/><path d="M452.954,545.894l28.078,23.866s10.354,7.37,15.267-4.563c-32.465-28.78-32.991-28.955-32.991-28.955Z" transform="translate(-370.523 -476.407)" fill="#fcd290"/><path d="M669.129,537.959l13.863,12.811s5.616,6.844,14.916-2.281c-21.409-17.2-22.638-18.251-22.638-18.251Z" transform="translate(-542.475 -471.631)" fill="#fcd290"/><path d="M109.224,391.069a2.71,2.71,0,0,0,.292.016h.006a2.688,2.688,0,0,0,.521-.053c.06-.012.115-.034.173-.049a2.642,2.642,0,0,0,.314-.1c.068-.027.129-.063.194-.1a2.7,2.7,0,0,0,.252-.137c.063-.04.119-.087.178-.132a2.665,2.665,0,0,0,.217-.179c.053-.05.1-.1.15-.159a2.7,2.7,0,0,0,.181-.219c.043-.06.081-.121.119-.184a2.63,2.63,0,0,0,.136-.25c.032-.069.06-.139.087-.211a2.653,2.653,0,0,0,.084-.27c.019-.077.035-.154.048-.233.007-.045.022-.087.027-.133s0-.1,0-.153.015-.094.015-.143V354.319c15.439-1.53,32.752-2.347,50.295-2.35s34.855.82,50.295,2.35v34.069c0,.049.012.094.014.143s0,.1,0,.153.02.088.027.133c.013.079.029.156.048.233a2.706,2.706,0,0,0,.084.271c.027.071.054.141.086.21a2.705,2.705,0,0,0,.136.251c.038.063.076.125.119.184a2.622,2.622,0,0,0,.181.219c.049.055.1.109.15.159a2.587,2.587,0,0,0,.217.179c.059.045.115.092.178.132a2.6,2.6,0,0,0,.252.137c.064.033.126.069.193.1a2.651,2.651,0,0,0,.314.1c.058.016.113.037.172.049a2.686,2.686,0,0,0,.52.053h.007a2.761,2.761,0,0,0,.292-.016c21.215-2.344,56.254-7.959,58.837-19.578a2.673,2.673,0,0,0,.387-1.373V267.294c0-17.275-67.22-23.546-112.4-23.546-.038,0-.073.01-.11.011s-.072-.011-.11-.011c-45.183,0-112.4,6.27-112.4,23.546V370.118a2.671,2.671,0,0,0,.387,1.373C52.97,383.109,88.009,388.724,109.224,391.069ZM55.615,370.118a2.685,2.685,0,0,0-.22-1.066v-93.9c10.578,7.135,34.509,10.952,51.427,12.833v97.376C71.537,381.17,55.615,374,55.615,370.118ZM218.2,385.361V287.985c16.918-1.88,40.849-5.7,51.427-12.832v93.9a2.687,2.687,0,0,0-.22,1.065C269.409,374,253.488,381.17,218.2,385.361ZM85.333,255.2c20.56-3.907,47.93-6.059,77.069-6.059.038,0,.073-.01.11-.011s.072.011.11.011c29.139,0,56.509,2.152,77.069,6.059,23.633,4.491,29.938,9.713,29.938,12.091,0,3.823-14.77,11.436-54.406,15.588-.039,0-.074.018-.113.023a2.66,2.66,0,0,0-.306.064c-.074.02-.146.042-.218.067a2.678,2.678,0,0,0-.271.116c-.071.035-.139.071-.206.112a2.655,2.655,0,0,0-.233.16c-.063.048-.124.1-.182.151a2.694,2.694,0,0,0-.2.2c-.052.059-.1.118-.15.181a2.66,2.66,0,0,0-.155.233c-.041.069-.079.138-.114.21a2.693,2.693,0,0,0-.105.254c-.029.08-.054.16-.075.243s-.038.173-.052.262a2.686,2.686,0,0,0-.028.274c0,.044-.013.086-.013.131V348.9c-15.443-1.51-32.7-2.317-50.171-2.324h-.248c-17.473.007-34.727.814-50.171,2.324V333.234l30.175-27L173.661,334a2.7,2.7,0,0,0,3.583-4.035l-10.752-9.545,16.324-14.92,18.918,16.45a2.7,2.7,0,0,0,3.54-4.072l-20.732-18.028a2.7,2.7,0,0,0-3.59.045l-18.517,16.924-18.259-16.209a2.7,2.7,0,0,0-3.59.007l-28.369,25.382V285.562c0-.045-.011-.087-.013-.131,0-.093-.014-.184-.028-.274s-.03-.176-.052-.262-.046-.163-.075-.243a2.7,2.7,0,0,0-.106-.255c-.035-.072-.073-.141-.114-.21a2.6,2.6,0,0,0-.155-.233c-.047-.063-.1-.123-.149-.181a2.773,2.773,0,0,0-.2-.2c-.058-.053-.119-.1-.182-.151a2.628,2.628,0,0,0-.233-.16c-.066-.041-.135-.077-.205-.111a2.652,2.652,0,0,0-.272-.117c-.071-.026-.143-.047-.218-.067a2.7,2.7,0,0,0-.306-.064c-.038-.006-.074-.019-.113-.023C70.166,278.729,55.4,271.116,55.4,267.293,55.4,264.916,61.7,259.693,85.333,255.2Z" transform="translate(-50 -243.748)" fill="#2a1540"/><path d="M651.144,377.69a12.95,12.95,0,1,0-12.951-12.95A12.965,12.965,0,0,0,651.144,377.69Zm0-20.505a7.555,7.555,0,1,1-7.555,7.556A7.564,7.564,0,0,1,651.144,357.184Z" transform="translate(-517.868 -329.687)" fill="#2a1540"/></g></g></svg>
