<svg xmlns="http://www.w3.org/2000/svg" viewBox="0 0 971.291 534.03"><g transform="translate(-67.419 -32.5)"><path d="M749.411,443.44c24.49,11.32,47.07,26.87,72.6,35.58,31.07,10.6,64.62,10.49,97.45,10.25l132.47-.93c-26.83,48.19-74.23,84.47-127.75,97.78-21,5.23-43.43,7.28-61.95,18.51-23.08,14-36.76,40.32-60.22,53.65-25.86,14.68-58,10.72-86.82,18-37.57,9.43-69,37.79-107.32,43.37-37.06,5.39-73.19-11.35-109.11-21.92-128.3-37.76-266.91,2.57-399.34-16.1-5.09-.72-10.51-1.69-14.19-5.27-4.73-4.59-5.12-12-4.18-18.57,4.72-32.74,34.17-56.8,65.05-68.67,65.79-25.28,139.7-9.4,209.59-18.5,48-6.26,93.66-24.28,138.7-42.15,47.16-18.71,95.06-37.07,139.75-61.28C679.571,442.54,694.3,418,749.411,443.44Z" transform="translate(-13.221 -166.74)" fill="#2d8ceb" opacity="0.1"/><path d="M899.127,617.24s-2,30,2,35c0,0-88,16-99,11s-6-13,0-16,36-14,40-35c0,0-13-6,29,2S899.127,617.24,899.127,617.24Z" transform="translate(-577.637 -166.74)" fill="#dc9ba3"/><path d="M899.127,617.24s-2,30,2,35c0,0-88,16-99,11s-6-13,0-16,36-14,40-35c0,0-13-6,29,2S899.127,617.24,899.127,617.24Z" transform="translate(-577.637 -166.74)" opacity="0.05"/><path d="M755.39,199.48l.38.18a123.369,123.369,0,0,1,46,37.47c6.82,9,15.2,17.58,23.17,19,17.7,3.12,147.85,138.48,116.61,264.46S728.06,651.77,728.06,651.77s-38.76,6.57-61,19.71a41.14,41.14,0,0,1-34.75,3.34c-26.48-9.42-70-23.08-89.62-18.88-29.15,6.25-279-97.87-279-97.87s104.12-100,257.17-97.87c0,0,241.55-168.67,233.22-238.43Z" transform="translate(-90.71 -166.74)" fill="#2d8ceb"/><path d="M755.39,199.48l.38.18a123.369,123.369,0,0,1,46,37.47c6.82,9,15.2,17.58,23.17,19,17.7,3.12,147.85,138.48,116.61,264.46S728.06,651.77,728.06,651.77s-38.76,6.57-61,19.71a41.14,41.14,0,0,1-34.75,3.34c-26.48-9.42-70-23.08-89.62-18.88-29.15,6.25-279-97.87-279-97.87s104.12-100,257.17-97.87c0,0,241.55-168.67,233.22-238.43Z" transform="translate(-90.71 -166.74)" opacity="0.1"/><path d="M755.221,199.24l25,24s19,37,36,40,142,133,112,254-205,126-205,126-36.42,6.17-57.85,18.52a41.62,41.62,0,0,1-34.71,3.39c-25.49-9-66.78-21.91-85.43-17.91-28,6-268-94-268-94s100-96,247-94c0,0,232-162,224-229Z" transform="translate(-90.731 -166.74)" fill="#1f87f1"/><ellipse cx="78.86" cy="143.561" rx="78.86" ry="143.561" transform="translate(552.966 472.075) rotate(-135)" opacity="0.1"/><path d="M543.86,326.24s-11,18-4,53-18,35-18,35h-50l-17-44,24,2s16-4,9-41Z" transform="translate(120.63 -166.74)" fill="#ffd2d9"/><path d="M499.891,284.24c7.65,24.35,17.24,54,22.36,69.82l3.64,11.18,33-34s-1.45-3.37-3.62-8.09c-4.83-10.46-13.24-27.53-17.38-28.91,0,0,46-3,60,8s10-30,10-30-27-2-37-8-64-12-64-12S488.891,249.24,499.891,284.24Z" transform="translate(14.598 -166.74)" fill="#ffd2d9"/><path d="M538.86,586.24s-85-39-115-33" transform="translate(156.63 -166.74)" opacity="0.1"/><path d="M495.86,494.24s-103-4-159,32" transform="translate(286.63 -166.74)" opacity="0.1"/><path d="M511.86,535.24s-81-20-124-13" transform="translate(219.63 -166.74)" opacity="0.1"/><path d="M841.86,578.24l7,51,18-2s1.09-1,2.94-2.68c4.85-4.27,14.94-12.64,24.6-17.2a30.141,30.141,0,0,1,10.46-3.12l-20-30a110.5,110.5,0,0,1-14.93,4.42,72.065,72.065,0,0,1-16.08,1.9A29.351,29.351,0,0,1,841.86,578.24Z" transform="translate(-627.37 -166.74)" fill="#ffd2d9"/><path d="M548.16,614.24c9,8,50-9,57,17l6.44-24.66,19.83-75.89,2.73-10.45,16.52-.71,189.58-8.09,10.76-.44,5.66-.24-7.51-3.72-50-24.78s-18-1.26-42.85-4.67h0c-37.66-5.16-91-15.25-121.12-33.32-50-30-69,71-69,71s-7.6,25.63-13.4,50.88c-2.76,12-5.11,24-6,33.06C545.95,606.9,546.21,612.51,548.16,614.24Z" transform="translate(-283.67 -166.74)" fill="#e9e9ef"/><path d="M551.182,614.24c9,8,50-9,57,17l6.44-24.66,19.83-75.89,2.73-10.45,17-1,183.2-11.31,11.31-.7,3.48-.21,4.51-.28-54.5-24.5s-18-1.26-42.85-4.67h0c-37.66-5.16-91-15.25-121.12-33.32-50-30-69,71-69,71s-7.6,25.63-13.4,50.88c-2.76,12-5.11,24-6,33.06C548.972,606.9,549.232,612.51,551.182,614.24Z" transform="translate(-286.693 -166.74)" opacity="0.05"/><path d="M841.83,578.66l17.5,20.52,7,8.18a30.141,30.141,0,0,1,10.46-3.12l-20-30a110.508,110.508,0,0,1-14.96,4.42Z" transform="translate(-599.27 -166.74)" opacity="0.1"/><path d="M510.139,576.24l19.57,22.94,9.43,11.06v3c11.54,2.66,47.51-4.92,55.44-6.66,1-.21,1.56-.34,1.56-.34,23,1,108-49,108-49s93,16,138,12c25.13-2.24,32.17-11.33,33.49-18.93a19.72,19.72,0,0,0-1.49-11.07L834,511l-5.33-3.75-8.51-6s-14.79-3.35-33.58-7.5h0c-29.35-6.47-68.47-14.88-76.39-15.49-13-1-46,10-65,32a56.156,56.156,0,0,1-11,9l-.52.34c-5.34,3.54-11.92,7.31-19.25,11.16-24.21,12.75-56.48,26.44-78.67,35.43C520.589,572.28,510.139,576.24,510.139,576.24Z" transform="translate(-266.649 -166.74)" fill="#e9e9ef"/><path d="M876.92,578.24l7,51,18-2s1.09-1,2.94-2.68c-4,.09-10.56-1.06-11.94-9.32,0,0,6.93-24.25-4-34.68A29.349,29.349,0,0,1,876.92,578.24Z" transform="translate(-662.43 -166.74)" opacity="0.1"/><path d="M974.39,615.24s10-35-13-39l-38,15-44,3S867.9,613,886.32,634a56.57,56.57,0,0,0,40,19l48.08,2.25,15-31S976.39,627.24,974.39,615.24Z" transform="translate(-745.9 -166.74)" fill="#dc9ba3"/><path d="M510.169,477.57c5,1.47,25.88,7.7,47.24,16.16h0a263.125,263.125,0,0,1,30.78,14.19c2.07,1.16,4,2.33,5.9,3.51,5.6,3.55,10.11,7.19,12.9,10.8,12.34,16,30.47,24.56,39.49,28.07a19.72,19.72,0,0,0-1.49-11.07L604.879,511l5.66-.24-7.51-3.72,4.51-.28-54.5-24.5S535.009,481,510.169,477.57Z" transform="translate(-37.529 -166.74)" opacity="0.1"/><path d="M545.86,354.06l3.64,11.18,33-34s-1.45-3.37-3.62-8.09C574.71,332,554.79,347.43,545.86,354.06Z" transform="translate(-9.01 -166.74)" opacity="0.1"/><path d="M569.566,370.67a58.14,58.14,0,0,0,2.58-10.43l43,15s29.5,22.5,26.5,71.5c0,0-36.5-13.5-52.5,2.5l-.33,2.82a130,130,0,0,1-35.25,74.38c-8,8.35-15.45,17.77-19.42,26.8,0,0-28-8-45-30s-98-45-98-45,43,1,49-14,26-47,19-72-11-33-11-33,41-29,38-38l26,30,12,4a19.2,19.2,0,0,0-1.41,7.31C522.1,389.74,560.456,396.28,569.566,370.67Z" transform="translate(86.344 -166.74)" fill="#cedad5"/><path d="M220.2,496s-8.38,11,3.87,27.5,22.35,30.51,18.26,40.83c0,0-18.48-30.73-33.52-31.16S203.654,514.51,220.2,496Z" transform="translate(674.696 -166.74)" fill="#1f87f1"/><path d="M220.678,496a13.569,13.569,0,0,0-1.71,3.44c-14.68,17.24-22.49,33.33-8.39,33.74,13.14.38,28.9,23.87,32.68,29.81a12.732,12.732,0,0,1-.45,1.35s-18.48-30.73-33.52-31.16S204.128,514.51,220.678,496Z" transform="translate(674.222 -166.74)" opacity="0.1"/><path d="M238,510c0,3.86.43,7,1,7s1-3.13,1-7-.54-2-1.07-2S238,506.14,238,510Z" transform="translate(641.35 -166.74)" fill="#ffd037"/><path d="M240.83,514.61c3.39,1.85,6.34,3,6.59,2.49s-2.28-2.35-5.67-4.19-2.05-.5-2.31,0S237.44,512.76,240.83,514.61Z" transform="translate(633.15 -166.74)" fill="#ffd037"/><path d="M184.429,496s8.38,11-3.87,27.5-22.35,30.51-18.26,40.83c0,0,18.48-30.73,33.52-31.16S200.969,514.51,184.429,496Z" transform="translate(754.741 -166.74)" fill="#1f87f1"/><path d="M183.955,496a13.57,13.57,0,0,1,1.71,3.44c14.68,17.24,22.49,33.33,8.39,33.74-13.14.38-28.9,23.87-32.68,29.81a12.738,12.738,0,0,0,.45,1.35s18.48-30.73,33.52-31.16S200.495,514.51,183.955,496Z" transform="translate(755.215 -166.74)" opacity="0.1"/><path d="M166.6,510c0,3.86-.43,7-1,7s-1-3.13-1-7,.54-2,1.07-2S166.6,506.14,166.6,510Z" transform="translate(788.15 -166.74)" fill="#ffd037"/><path d="M163.8,514.61c-3.39,1.85-6.34,3-6.59,2.49s2.28-2.35,5.67-4.19,2.05-.5,2.31,0S167.19,512.76,163.8,514.61Z" transform="translate(796.29 -166.74)" fill="#ffd037"/><path d="M254.455,562.93s-23.43-.72-30.49-5.75-36-11-37.79-3-35.21,40.11-8.76,40.32,61.46-4.12,68.51-8.41S254.455,562.93,254.455,562.93Z" transform="translate(697.625 -166.74)" fill="#a8a8a8"/><path d="M176.945,591.73c26.45.21,61.46-4.12,68.51-8.41,5.37-3.27,7.51-15,8.22-20.41h.78s-1.48,18.9-8.53,23.19-42.06,8.63-68.51,8.41c-7.64-.06-10.27-2.78-10.13-6.8C168.355,590.16,171.265,591.68,176.945,591.73Z" transform="translate(697.615 -166.74)" opacity="0.2"/><path d="M321.314,695.19a11.67,11.67,0,0,1-3.83-5.78c-.5-2.3.48-5.05,2.68-5.89,2.46-.94,5.09.76,7.08,2.49s4.28,3.69,6.89,3.32a10.48,10.48,0,0,1-3.24-9.81,4.1,4.1,0,0,1,.9-2c1.37-1.46,3.84-.83,5.48.32,5.2,3.66,6.65,10.72,6.68,17.08.52-2.29.08-4.68.1-7s.66-5,2.64-6.22a8,8,0,0,1,4-.95c2.34-.09,4.94.15,6.54,1.86,2,2.12,1.47,5.69-.26,8s-4.35,3.8-6.77,5.42a15,15,0,0,0-4.84,4.61,4.575,4.575,0,0,0-.36.82h-14.63a40.826,40.826,0,0,1-9.06-6.27Z" transform="translate(443.476 -166.74)" fill="#1f87f1"/><path d="M386.314,727a11.669,11.669,0,0,1-3.83-5.78c-.5-2.3.48-5.05,2.68-5.89,2.46-.94,5.09.76,7.08,2.49s4.28,3.69,6.89,3.32a10.48,10.48,0,0,1-3.24-9.81,4.1,4.1,0,0,1,.9-2c1.37-1.46,3.84-.83,5.48.32,5.2,3.66,6.65,10.72,6.68,17.08.52-2.29.08-4.68.1-7s.66-5,2.64-6.22a8,8,0,0,1,4-.95c2.34-.09,4.94.15,6.54,1.86,2,2.12,1.47,5.69-.26,8s-4.35,3.8-6.77,5.42a15,15,0,0,0-4.84,4.61,4.571,4.571,0,0,0-.36.82h-14.63a40.826,40.826,0,0,1-9.06-6.27Z" transform="translate(313.476 -166.74)" fill="#1f87f1"/><path d="M675.36,575.74s-97-40-176-2l19,40,91,2Z" transform="translate(-55.37 -166.74)" fill="#1f87f1"/><path d="M456.38,344.38a103.646,103.646,0,0,0-1.52-11.14l56-5s-3.88,3.35-5.57,15.85c-6.57,3.9-14.24,9.15-22.43,9.15A43.8,43.8,0,0,1,456.38,344.38Z" transform="translate(153.63 -166.74)" opacity="0.1"/><ellipse cx="44" cy="44" rx="44" ry="44" transform="translate(591.99 97)" fill="#ffd2d9"/><path d="M497.42,319.24h-6v-17l-6-18s-30-14-44-11l-11,10s-3-24,15-33,50-5,58,2,21,19,11,52l-3,8S499.42,308.24,497.42,319.24Z" transform="translate(171.07 -166.74)" fill="#844f6e"/><g transform="translate(477.49 154.51)" opacity="0.05"><path d="M547,342.34l-3.28-1.09-15.14-17.43a4.259,4.259,0,0,0,.1-2.57Z" transform="translate(-433.72 -321.25)"/><path d="M521.269,374.59c-7.93-3.5-14-11.1-13.73-22a9.148,9.148,0,0,1,.1-1.68l.32.36,12,4a19.2,19.2,0,0,0-1.41,7.31,23.9,23.9,0,0,0,2.72,12.01Z" transform="translate(-386.939 -321.25)"/><path d="M571.77,477.42c25.06,8.72,59,22.45,69.32,35.82.25.33.51.64.77,1-27.46-18.83-87.77-36-87.77-36a155.874,155.874,0,0,0,17.68-.82Z" transform="translate(-554.09 -321.25)"/><path d="M421.586,543.24c4-9,11.47-18.45,19.42-26.8a130,130,0,0,0,35.25-74.38l.33-2.82c16-16,52.5-2.5,52.5-2.5,1.9-31.08-9.27-51.49-17.69-62.27l2.19.77s29.5,22.5,26.5,71.5c0,0-36.5-13.5-52.5,2.5l-.33,2.82a130,130,0,0,1-35.25,74.38c-8,8.35-15.45,17.77-19.42,26.8,0,0-24.37-7-41.44-25.76a103.519,103.519,0,0,0,30.44,15.76Z" transform="translate(-289.586 -321.25)"/></g><path d="M424.967,426.24s48,69,73,89,32-9,32-9v-64l-44-5-.47,6.07-.53,6.93-41-44s-41-37-49-15S424.967,426.24,424.967,426.24Z" transform="translate(195.523 -166.74)" fill="#ffd2d9"/><path d="M393.83,443.31a95.269,95.269,0,0,0,19,8.43c9.45,2.91,20.28-.15,25.5-2v-7.47l-44-5Z" transform="translate(287.19 -166.74)" opacity="0.1"/><path d="M441.994,435.74l2.63,10.71s-15.63,7.29-28.63,3.29-23-11-25-12,8-12,8-12Z" transform="translate(283.996 -166.74)" fill="#cedad5"/><path d="M724.36,557.74a81.22,81.22,0,0,0-22-12,78.6,78.6,0,0,1-21-11" transform="translate(-286.37 -166.74)" opacity="0.1"/><path d="M892.9,594.24l1.64-.11c-2.38,6-5.82,20.79,8.29,36.9a56.57,56.57,0,0,0,40,19l46.57,2.18-1.49,3.07L939.822,653a56.57,56.57,0,0,1-40-19C881.412,613,892.9,594.24,892.9,594.24Z" transform="translate(-759.412 -166.74)" fill="#fff" opacity="0.2"/><path d="M759.207,645.74h.15c-.13,2.36-.36,7.23-.4,12.58C758.917,653.62,759.067,649,759.207,645.74Z" transform="translate(-398.957 -166.74)" fill="lime" opacity="0.05"/><path d="M817.756,637.1q-.21.91-.47,1.79C816.306,638.33,814.9,637.27,817.756,637.1Z" transform="translate(-514.466 -166.74)" fill="lime" opacity="0.05"/><path d="M802.363,660.24c10.25,4.66,87.33-8.91,97.81-10.79a7.789,7.789,0,0,0,1.19,2.79s-88,16-99,11c-5.66-2.57-7.08-5.94-6.31-9C796.633,656.37,798.513,658.49,802.363,660.24Z" transform="translate(-577.873 -166.74)" fill="#fff" opacity="0.2"/><path d="M756.624,645.75c.05-1,.09-1.51.09-1.51S761.8,646.06,756.624,645.75Z" transform="translate(-396.224 -166.74)" fill="lime" opacity="0.05"/><rect width="69" height="34" rx="4.08" transform="translate(592.99 119)" opacity="0.1"/><rect width="29" height="13" rx="2.44" transform="translate(658.99 130)" opacity="0.1"/><rect width="69" height="34" rx="4.08" transform="translate(592.99 118)" fill="#7679b4"/><rect width="60.88" height="30" rx="4.08" transform="translate(593.06 120)" fill="#565388"/><rect width="29" height="13" rx="2.44" transform="translate(658.99 129)" fill="#565388"/><path d="M461.68,286.72A68.15,68.15,0,0,1,436.3,259.5c-.67-1.31-1.31-2.78-.94-4.2.71-2.72,4.26-3.2,6.82-4.37,4.77-2.19,6.78-7.72,9.91-11.93a23.86,23.86,0,0,1,23.33-9c4.56.92,8.78,3.18,13.38,3.86,9.92,1.45,20.74-4.56,29.65,0,4.06,2.09,6.81,6,9.23,9.9,6.07,9.71,13.68,20,8.16,31.39-3.17,6.51-8.23,11.91-15.34,13.81s-15.34.32-22.57-.47c-5.95-.64-12.18-2-18.17-1.37C472.75,287.88,468.37,290.74,461.68,286.72Z" transform="translate(146.35 -166.74)" opacity="0.1"/><path d="M461.68,284.72A68.15,68.15,0,0,1,436.3,257.5c-.67-1.31-1.31-2.78-.94-4.2.71-2.72,4.26-3.2,6.82-4.37,4.77-2.19,6.78-7.72,9.91-11.93a23.86,23.86,0,0,1,23.33-9c4.56.92,8.78,3.18,13.38,3.86,9.92,1.45,20.74-4.56,29.65,0,4.06,2.09,6.81,6,9.23,9.9,6.07,9.71,13.68,20,8.16,31.39-3.17,6.51-8.23,11.91-15.34,13.81s-15.34.32-22.57-.47c-5.95-.64-12.18-2-18.17-1.37C472.75,285.88,468.37,288.74,461.68,284.72Z" transform="translate(146.35 -166.74)" fill="#844f6e"/></g></svg>
