<svg xmlns="http://www.w3.org/2000/svg" xmlns:xlink="http://www.w3.org/1999/xlink" viewBox="0 0 307.352 214"><defs><linearGradient id="a" x1="0.5" y1="1" x2="0.5" gradientUnits="objectBoundingBox"><stop offset="0" stop-color="gray" stop-opacity="0.251"/><stop offset="0.54" stop-color="gray" stop-opacity="0.122"/><stop offset="1" stop-color="gray" stop-opacity="0.102"/></linearGradient></defs><g transform="translate(-0.003 -0.048)"><path d="M276.3,129.543c-19.555-.68-38.18-6.992-55.967-13.9s-35.4-14.561-54.487-18.2c-12.276-2.354-26.314-2.686-36.207,3.895-9.518,6.345-12.594,17.268-14.249,27.411-1.242,7.635-1.976,15.666,1.435,22.812,2.366,4.961,6.569,9.131,9.475,13.884,10.11,16.534,2.964,36.923-7.995,53.066-5.137,7.572-11.1,14.805-15.068,22.861s-5.8,17.3-2.333,25.523c3.441,8.158,11.639,14.274,20.516,18.579,18.035,8.744,39.279,11.249,60.013,12.666,45.872,3.139,91.992,1.78,137.985.42,17.023-.5,34.119-1.015,50.864-3.647,9.3-1.462,18.9-3.783,25.652-9.367,8.569-7.11,10.693-19.15,4.952-28.064-9.633-14.953-36.258-18.67-43-34.717-3.707-8.832.1-18.673,5.484-26.864,11.554-17.576,30.919-32.992,31.94-53.082.7-13.8-8.608-27.613-23-34.143-15.089-6.844-36.01-5.983-47.135,5.345C313.707,125.654,293.566,130.141,276.3,129.543Z" transform="translate(-96.75 -95.85)" fill="#2d8ceb" opacity="0.1"/><g transform="translate(0.003 96.62)" opacity="0.1"><path d="M117.483,418.142s-22.583-9.5-25.553,7.629a4.171,4.171,0,0,0,.6,4.877s.462-1.184,2.644.039a11.23,11.23,0,0,0,2.466,1,5.547,5.547,0,0,0,3.511-.187h0s7.43-.4,13.678-10.122c0,0,2.68-1.656,2.813-2.278l-4.478.3s.344,3.278-1.511,5.245c0,0,1.644-5.088.855-5.23-.16-.03-2.366.26-2.366.26s.571,5.7-2.417,8.651c0,0,2.774-5.8,1.568-8.548l-3.306.638s.906,6-2.363,9.484c0,0,2.689-6.164,1.65-9.294l-3.163,1.064s.761,5.865-1.973,8.762c0,0,2.387-7.436,1.263-8.46a16.466,16.466,0,0,0-3.454,1.813s.45,4.23-1.287,5.756c0,0,1.067-5.137.538-5.348,0,0-3.306,2.49-4.315,4.638a12.533,12.533,0,0,1,3.9-5.137,6.955,6.955,0,0,0-3.928.553s1.142-2.178,4.729-1.145c0,0,2.656-1.84,3.188-1.813,0,0-3.393-1.511-5.844-1.323,0,0,2.629-1.511,6.671,1.012l3.157-1.139s-4.381-2.245-6.575-2.236c0,0,2.919-1.13,7.394,2.012l3.233-.659a25.708,25.708,0,0,0-6.07-2.737s2.931-.465,7,2.583l2.209-.184s-2.674-1.577-3.484-1.961-.773-.631-.773-.631a10.542,10.542,0,0,1,5.185,2.5S117.464,418.423,117.483,418.142Z" transform="translate(-91.393 -415.515)" fill="#2d8ceb"/></g><g transform="translate(3.319 69.968)" opacity="0.1"><path d="M124.315,339.557s-8.01-18.513-19.528-10.022a3.43,3.43,0,0,0-2.417,3.233s.949-.441,1.55,1.532a9.094,9.094,0,0,0,.906,2,4.532,4.532,0,0,0,2.191,1.888h0s4.644,3.994,13.9,1.78c0,0,2.538.541,2.97.251l-2.828-2.378a6.091,6.091,0,0,1-3.895,2.248s3.877-2.085,3.49-2.62c-.079-.109-1.556-1.19-1.556-1.19s-2.907,3.71-6.345,3.768c0,0,4.952-1.867,5.8-4.185l-2.327-1.511s-2.882,4.076-6.807,4.287c0,0,5.109-2.13,6.276-4.584l-2.487-1.169s-2.889,3.928-6.155,4.076c0,0,5.656-3.058,5.569-4.306a13.118,13.118,0,0,0-3.094-.882s-2.136,2.765-4.043,2.686c0,0,3.562-2.444,3.369-2.87,0,0-3.384-.4-5.206.3a10.311,10.311,0,0,1,5.242-.828,5.68,5.68,0,0,0-2.644-1.9s1.922-.644,3.463,2.009a13.19,13.19,0,0,1,2.931.737,12.41,12.41,0,0,0-2.719-4.115s2.417.6,3.384,4.4l2.526,1.121s-1.323-3.831-2.635-5.073c0,0,2.378.991,3.248,5.408l2.3,1.447a21.192,21.192,0,0,0-2.046-5.085s2.006,1.4,2.686,5.526l1.42,1.148s-.692-2.46-.955-3.148-.1-.816-.1-.816a8.656,8.656,0,0,1,1.659,4.436S124.137,339.711,124.315,339.557Z" transform="translate(-102.37 -327.306)" fill="#2d8ceb"/></g><path d="M731.258,434.687a11.485,11.485,0,0,0-1.209-3.154,10.963,10.963,0,0,0-1.982-2.166c-2.191-1.991-4.883-4.013-7.786-3.508a10.274,10.274,0,0,0-2.586.943c-.423.2-.849.393-1.284.559a6.405,6.405,0,0,1-3.877.338c-.665-.178-1.284-.5-1.94-.7a6.262,6.262,0,0,0-.955-.205,17.587,17.587,0,0,0,1.843-.97c3.26-2.015,5.862-5.641,5.5-9.478a15.456,15.456,0,0,0-1.009-3.765q-.58-1.6-1.163-3.212a13.675,13.675,0,0,0-1.937-3.967,10.091,10.091,0,0,0-3.97-2.813,38.561,38.561,0,0,0-10.216-2.369l-.242-.033V362.648a2.417,2.417,0,0,0-2.417-2.432h-4.572q-.3-1.849-.6-3.7c-.577-3.508-1.172-7.085-2.789-10.246-1.057-2.07-2.744-4.04-5.013-4.448a5,5,0,0,1-1.305-.3c-.665-.326-1.027-1.051-1.541-1.589-1.317-1.381-3.46-1.4-5.227-2.115a27.343,27.343,0,0,1-4.254-2.686c-1.42-.9-3.188-1.538-4.762-.952a3.264,3.264,0,0,1-.033.341l-1.009-.453a11.06,11.06,0,0,1-3.073-1.849,8.8,8.8,0,0,1-2.188-3.952c-.048-.157-.094-.3-.139-.468a14.059,14.059,0,0,0,3.759-7.182c.082.263.166.529.248.795a4.194,4.194,0,0,0,.3.783,2.069,2.069,0,0,0,.142.239,1.542,1.542,0,0,0,.369.384,1.031,1.031,0,0,0,.486.19.907.907,0,0,0,.254,0,1.4,1.4,0,0,0,1.015-.867,1.813,1.813,0,0,0,.106-.369,1.9,1.9,0,0,0,.021-.23V321a.88.88,0,0,0-.03-.178c-.012-.057,0-.033,0-.048-.015-.079-.033-.154-.048-.233a.3.3,0,0,1,0-.051l-.045-.19-.027-.115v-.03h0c-.03-.118-.057-.239-.085-.36a10.4,10.4,0,0,1-.166-3.194,34.592,34.592,0,0,1,.864-4.641l.063-.275.073-.32c.048-.218.094-.435.139-.653h0c.039-.184.076-.372.109-.559s.057-.329.082-.5v-.06a14.356,14.356,0,0,0,.148-3.408h0a7.163,7.163,0,0,0-1.707-4.269c-.758-.843-1.755-1.465-2.46-2.351-.662-.831-1.033-1.852-1.716-2.665-1.888-2.254-6.732-3.991-9.705-4.294-3.405-.344-8.907.526-11.651,2.538a11.265,11.265,0,0,0-2.417,2.831,13.912,13.912,0,0,1-4.859,4.834,5.884,5.884,0,0,0-2.212,1.4,3.8,3.8,0,0,0-.6,1.568,30.881,30.881,0,0,0-.622,5.983,7.374,7.374,0,0,0,.332,2.6c.042.115.094.233.148.344h0c.048.1.1.2.16.3l.036.063a12.555,12.555,0,0,1,.97,1.647,2.39,2.39,0,0,1,.145.5,3.715,3.715,0,0,1-.085,1.326h0a.847.847,0,0,1-.039.193l-.027.139a.249.249,0,0,1-.024.13q-.036.2-.063.39c0,.091-.018.184-.021.278a2.268,2.268,0,0,0,.208,1.088,1.385,1.385,0,0,0,.142.23,1.21,1.21,0,0,0,.408.347,4.575,4.575,0,0,0,1.118.266,3.385,3.385,0,0,1,2.3,2.178,7.687,7.687,0,0,1,.269.728,12.876,12.876,0,0,1,.423,1.894c.514-.027.813-.48.994-.976a4.6,4.6,0,0,0,.142-.5c.07-.317.139-.635.212-.952a14.046,14.046,0,0,0,5.517,6.079c.085.248.166.5.242.752a5.117,5.117,0,0,1-.1,4,4.242,4.242,0,0,1-2.233,1.737,1.477,1.477,0,0,0-.5-.426,2.3,2.3,0,0,0-2.417.683c-1.209,1.094-2.194,2.662-3.786,3.021a4.395,4.395,0,0,0-1.689.456,3.9,3.9,0,0,0-.783,1.03,3.6,3.6,0,0,1-3.094,1.541c-.553-.027-1.209-.154-1.586.251-.281.3-.3.783-.6,1.07-.408.4-1.07.2-1.638.178a3.021,3.021,0,0,0-2.191.949,5.154,5.154,0,0,0-1.317-3.293,17.423,17.423,0,0,0-2.916-1.931c-2.417-1.644-3.626-4.532-4.886-7.179s-2.922-5.439-5.671-6.4c-.631-.224-1.511-.242-1.795.372a1.339,1.339,0,0,0-.045.8,9.262,9.262,0,0,0,2.136,3.671c1.459,1.91,2.683,4.245,2.33,6.632-.414,2.825-2.931,5.019-3.233,7.856a36.607,36.607,0,0,0,.181,3.765,10.842,10.842,0,0,0,.045,2.345,15.892,15.892,0,0,0,.638,1.707,10,10,0,0,1,.417,2.813q.32,6.007.638,12.016a32.794,32.794,0,0,1-1.151,8.877,27.854,27.854,0,0,0-1.891,5.439,18.547,18.547,0,0,0,.3,9.944c.571,1.731,1.447,3.354,1.916,5.115a.464.464,0,0,0,.027.112c.045.375.1.749.166,1.121a10.76,10.76,0,0,0,.335,1.269,9.044,9.044,0,0,0,.665,2.076,5.807,5.807,0,0,0,1.813,2.115c-.435.852-1.139,1.538-1.607,2.372a7.277,7.277,0,0,0-.553,4.856,16.064,16.064,0,0,0,4.532,8.282,2.613,2.613,0,0,0-.3,0,4.738,4.738,0,0,0-2.067.74,14.023,14.023,0,0,0-6.5,14.231,6.1,6.1,0,0,0,1.251,2.964,4.7,4.7,0,0,0,2.2,1.351,7.639,7.639,0,0,0,1.622.3c3.719.3,7.321-1.423,11.05-1.568a29.751,29.751,0,0,1,3.7.172q2.692.224,5.4.284a7.146,7.146,0,0,0,6.448-2.9,7.819,7.819,0,0,0,1.139-1.795c1.589-.091,3.345-.23,4.617-.335l.018.178a2.423,2.423,0,0,0,.659,1.683,2.354,2.354,0,0,0,.906.369,29.1,29.1,0,0,0,13.7,1.169l5.529-.638a28.16,28.16,0,0,1,4.747,1.033c1.6.544,3.088,1.351,4.647,1.985a46.169,46.169,0,0,0,11.394,2.511,2.323,2.323,0,0,0,1.9-.3c.628-.6.417-1.617.242-2.463-.073-.344-.127-.695-.172-1.045a52.426,52.426,0,0,1,7.632,2.65l.435.19c.124.659.734,1.187,1.317,1.9a4.8,4.8,0,0,0,.668.825,2.191,2.191,0,0,0,.958.348,44.755,44.755,0,0,0,12.388.559,12.693,12.693,0,0,1,2.553-.088,10.769,10.769,0,0,1,1.843.417l3.5,1a23.643,23.643,0,0,0,7.9,1.32,10.494,10.494,0,0,0,1.614-.233,7.571,7.571,0,0,0,5.1-3.577C732.7,440.7,732.034,437.515,731.258,434.687ZM628.63,387.428a10.993,10.993,0,0,1-1.009,3.78c-.375.758-.858,1.456-1.209,2.218a11.993,11.993,0,0,0-.728,3.42c-.181-.03-.366-.057-.547-.079.269-.943.471-1.91.74-2.855A37,37,0,0,1,628.63,387.428Z" transform="translate(-449.269 -233.075)" fill="url(#a)"/><path d="M698.388,743.183c-.638-1.45-1.242-3.118-.6-4.568a3.883,3.883,0,0,1,2.009-1.888,9.671,9.671,0,0,1,2.719-.671,37.952,37.952,0,0,1,8.841-.121,14.4,14.4,0,0,1-.628,5.061c-.354,1.511-.556,1.734-2.115,1.813C707.6,742.863,698.627,743.718,698.388,743.183Z" transform="translate(-514.371 -542.36)" fill="#fbbebe"/><ellipse cx="43.207" cy="12.086" rx="43.207" ry="12.086" transform="translate(167.716 166.868)" fill="#464353"/><ellipse cx="43.207" cy="12.086" rx="43.207" ry="12.086" transform="translate(167.716 166.868)" opacity="0.1"/><path d="M747.347,420.01a13.443,13.443,0,0,1-6.931,6.3,17.4,17.4,0,0,1-5.487,1.045,15.673,15.673,0,0,1-6.073-.74,13.894,13.894,0,0,1-6.345-5.085,31.041,31.041,0,0,1-3.683-7.354,8.175,8.175,0,0,1-.752-4.179c1.556-.354,3.26-.873,4.064-2.254a5.014,5.014,0,0,0,.1-3.958c-.112-.384-.242-.764-.372-1.13-.3-.876-1.345-2.541-.619-3.29.462-.474,2.4-.716,3.067-1.024,2.058-.949,3.955-2.32,6.215-2.771a14.962,14.962,0,0,1,5.925.381,1.948,1.948,0,0,1,.731.263,1.759,1.759,0,0,1,.544.816c.556,1.354.882,2.849,1.329,4.26a8.711,8.711,0,0,0,2.185,3.913,11.152,11.152,0,0,0,3.073,1.831l2.677,1.227a3.521,3.521,0,0,1,1.266.819,3.206,3.206,0,0,1,.6,1.644,15.355,15.355,0,0,1-1.517,9.291Z" transform="translate(-528.677 -304.858)" fill="#fbbebe"/><path d="M745.938,401.286a13.9,13.9,0,0,1-16.809,2.5c-.112-.384-.242-.764-.372-1.13-.3-.876-1.345-2.541-.619-3.29.462-.474,2.4-.716,3.067-1.024,2.058-.949,3.955-2.32,6.215-2.771a14.962,14.962,0,0,1,5.925.381,1.948,1.948,0,0,1,.731.263,1.759,1.759,0,0,1,.544.816C745.165,398.379,745.491,399.875,745.938,401.286Z" transform="translate(-535.568 -304.858)" opacity="0.1"/><circle cx="13.899" cy="13.899" r="13.899" transform="translate(186.449 72.295)" fill="#fbbebe"/><path d="M729.54,462.782l-1.142-6.919c-.577-3.472-1.172-7.01-2.786-10.137-1.061-2.049-2.744-4-5.013-4.405a4.851,4.851,0,0,1-1.305-.3c-.665-.32-1.027-1.039-1.538-1.571-1.317-1.366-3.463-1.387-5.227-2.082a26.717,26.717,0,0,1-4.254-2.656,5.652,5.652,0,0,0-4.759-.943,23.848,23.848,0,0,1-1.671,7.931,11.868,11.868,0,0,1-17.905,4.46,14.912,14.912,0,0,1-5.221-8.427c-.2-.8-.42-1.713-1.154-2.079a2.315,2.315,0,0,0-2.417.671c-1.224,1.085-2.2,2.638-3.786,3a4.416,4.416,0,0,0-1.686.453,3.836,3.836,0,0,0-.786,1.018,3.626,3.626,0,0,1-3.091,1.529c-.553-.027-1.209-.154-1.586.248-.281.3-.3.773-.6,1.055-.408.4-1.07.2-1.638.181a3.3,3.3,0,0,0-2.692,1.511,9.747,9.747,0,0,0-1.209,2.979c3.3,7.354,6.324,14.718,9.626,22.072a1.883,1.883,0,0,1,.239.906,2.209,2.209,0,0,1-.411.906c-1.62,2.6-1.568,5.874-1.39,8.932s.4,6.288-.97,9.028c-.372.752-.855,1.441-1.209,2.194-.828,1.7-1.127,7.155-.644,8.986H731.6c-1.3-3.58-.807-10.766-.535-14.567a53.134,53.134,0,0,0-.514-7.974C730.105,473.354,730.438,468.2,729.54,462.782Z" transform="translate(-486.846 -331.48)" fill="#f86d70"/><path d="M780.381,650.286a6.51,6.51,0,0,1,3.194-.1,38.861,38.861,0,0,1,10.213,2.348,10.028,10.028,0,0,1,3.97,2.783,13.769,13.769,0,0,1,1.937,3.928l1.16,3.17a15.3,15.3,0,0,1,1.012,3.725c.363,3.8-2.239,7.391-5.511,9.367s-7.125,2.68-10.877,3.417-7.52,1.553-11.258,2.417a45.317,45.317,0,0,1-5.3,1.042c-4,.453-8.182-.215-11.983,1.109a45.6,45.6,0,0,1-4.562,1.68,28.373,28.373,0,0,1-3.151.508l-7.194.822a29.476,29.476,0,0,1-13.7-1.148,1.769,1.769,0,0,1-1.565-2.03q-.462-4.052-.81-8.113a3.042,3.042,0,0,1,3.212-3.937,74.6,74.6,0,0,1,13.8-.958c1.755-1.756,4.65-1.765,6.949-2.719a20.674,20.674,0,0,0,2.45-1.332,32.028,32.028,0,0,1,13.449-4.251,12.527,12.527,0,0,0,2.753-.393c1.78-.553,3.4-2.058,5.23-1.689a4.232,4.232,0,0,1,.906-1.891c.26-.221.58-.369.819-.6a2.479,2.479,0,0,0,.474-2.027,5.936,5.936,0,0,1-.06-2.139,2.96,2.96,0,0,1,.335-.746A4.069,4.069,0,0,1,780.381,650.286Z" transform="translate(-534.191 -482.557)" fill="#464353"/><path d="M780.381,650.286a6.51,6.51,0,0,1,3.194-.1,38.861,38.861,0,0,1,10.213,2.348,10.028,10.028,0,0,1,3.97,2.783,13.769,13.769,0,0,1,1.937,3.928l1.16,3.17a15.3,15.3,0,0,1,1.012,3.725c.363,3.8-2.239,7.391-5.511,9.367s-7.125,2.68-10.877,3.417-7.52,1.553-11.258,2.417a45.317,45.317,0,0,1-5.3,1.042c-4,.453-8.182-.215-11.983,1.109a45.6,45.6,0,0,1-4.562,1.68,28.373,28.373,0,0,1-3.151.508l-7.194.822a29.476,29.476,0,0,1-13.7-1.148,1.769,1.769,0,0,1-1.565-2.03q-.462-4.052-.81-8.113a3.042,3.042,0,0,1,3.212-3.937,74.6,74.6,0,0,1,13.8-.958c1.755-1.756,4.65-1.765,6.949-2.719a20.674,20.674,0,0,0,2.45-1.332,32.028,32.028,0,0,1,13.449-4.251,12.527,12.527,0,0,0,2.753-.393c1.78-.553,3.4-2.058,5.23-1.689a4.232,4.232,0,0,1,.906-1.891c.26-.221.58-.369.819-.6a2.479,2.479,0,0,0,.474-2.027,5.936,5.936,0,0,1-.06-2.139,2.96,2.96,0,0,1,.335-.746A4.069,4.069,0,0,1,780.381,650.286Z" transform="translate(-534.191 -482.557)" opacity="0.05"/><path d="M636.04,730.966a7.173,7.173,0,0,1-6.445,2.87q-2.7-.063-5.4-.281a30.277,30.277,0,0,0-3.7-.172c-3.729.145-7.327,1.852-11.047,1.553a7.831,7.831,0,0,1-1.623-.3,4.723,4.723,0,0,1-2.191-1.333,6.019,6.019,0,0,1-1.251-2.934,13.822,13.822,0,0,1,6.5-14.083,4.769,4.769,0,0,1,2.067-.734,4.9,4.9,0,0,1,2.091.459l.045.018a15.813,15.813,0,0,1,5.179,3.457,2.919,2.919,0,0,0,.792.638,2.721,2.721,0,0,0,.934.175l3.97.251a9.408,9.408,0,0,1,1.994.275,15.845,15.845,0,0,1,2.1.906,26.845,26.845,0,0,0,6.813,1.577,1.018,1.018,0,0,1,.6.242.945.945,0,0,1,.187.393A7.708,7.708,0,0,1,636.04,730.966Z" transform="translate(-449.244 -528.275)" fill="#3f3d56"/><path d="M615.083,716.027a23.837,23.837,0,0,0-3.973,4.967,24.86,24.86,0,0,0-3.245,9.832,18.247,18.247,0,0,0-.033,3.81,4.723,4.723,0,0,1-2.191-1.335,6.019,6.019,0,0,1-1.251-2.934,13.822,13.822,0,0,1,6.5-14.083,4.769,4.769,0,0,1,2.067-.734,4.9,4.9,0,0,1,2.091.459Z" transform="translate(-449.244 -528.275)" opacity="0.1"/><path d="M873.316,740.688c2.221-.06,4.714-.172,6.345,1.323,1.556,1.414,1.762,3.747,1.864,5.847l.118,2.438a4.871,4.871,0,0,1-.233,2.2,3.388,3.388,0,0,1-3.324,1.722,11.18,11.18,0,0,1-3.774-1.178A53.083,53.083,0,0,0,864.04,749.8q.172-2.529.574-5.034c.184-1.157.215-3.094.988-4.055.819-1.015,1.885-.465,3-.278A24.064,24.064,0,0,0,873.316,740.688Z" transform="translate(-630.583 -545.421)" fill="#fbbebe"/><path d="M643.389,645.5c0,.3-.474,0-.517-.323a7.359,7.359,0,0,0-4.532-5.439,14.834,14.834,0,0,0-7.282-.8c-3.7.351-7.841,1.768-9.209,5.227-.32.81-.465,1.686-.858,2.463-.435.852-1.145,1.532-1.616,2.36a7.178,7.178,0,0,0-.553,4.807c.789,4.321,3.744,8.016,7.324,10.575s7.765,4.088,11.938,5.466a207.027,207.027,0,0,0,33.841,8.082,32.521,32.521,0,0,1,5.523,1.139c1.6.535,3.088,1.336,4.647,1.964a46.662,46.662,0,0,0,11.391,2.487,2.337,2.337,0,0,0,1.9-.3c.629-.583.42-1.6.242-2.435a13.1,13.1,0,0,1,1.538-9.288c.647-1.088,1.487-2.2,1.366-3.463a3.478,3.478,0,0,0-3.064-2.744,15.344,15.344,0,0,0-4.4.3,2.414,2.414,0,0,1-1.511-.148,2.987,2.987,0,0,1-.586-.52,6.626,6.626,0,0,0-7.717-1.079c-.541.3-1.36-.372-1.922-.625l-6.348-2.879c-7.3-3.3-14.636-6.62-22.359-8.711a4.7,4.7,0,0,1-1.722-.716c-.384-.3-.659-.713-1.012-1.048a12.9,12.9,0,0,0-2.768-1.535C644.2,647.806,643.171,646.54,643.389,645.5Z" transform="translate(-459.339 -474.734)" fill="#464353"/><path d="M937.279,751.578a7.562,7.562,0,0,1-5.1,3.538,10.123,10.123,0,0,1-1.613.23,23.84,23.84,0,0,1-7.892-1.305l-3.5-.991a11.046,11.046,0,0,0-1.843-.411,12.652,12.652,0,0,0-2.55.088,45.2,45.2,0,0,1-12.388-.556,2.184,2.184,0,0,1-.958-.341,4.762,4.762,0,0,1-.668-.819c-.952-1.145-1.976-1.813-.849-3.324.65-.876,1.855-1.314,2.36-2.32a5.173,5.173,0,0,0-.118-3.475c-.408-1.435-1.749-2.055-2.23-3.372a2.374,2.374,0,0,1,1.154-2.689,4.8,4.8,0,0,1,3.082-.444c1.049.139,2.076.435,3.13.517,3.1.248,6.27-1.351,9.246-.45.656.2,1.275.517,1.94.692a6.451,6.451,0,0,0,3.877-.335c.435-.163.861-.36,1.284-.553a10.34,10.34,0,0,1,2.583-.934c2.9-.5,5.6,1.511,7.786,3.472a11.009,11.009,0,0,1,1.979,2.145,10.77,10.77,0,0,1,1.209,3.121C938,745.861,938.663,749.01,937.279,751.578Z" transform="translate(-655.276 -541.321)" fill="#3f3d56"/><path d="M993.244,751.55a7.562,7.562,0,0,1-5.1,3.538,9.877,9.877,0,0,0,1.073-5.185,16.372,16.372,0,0,0-3.055-7.968,28.227,28.227,0,0,0-3.366-4.1c-.961-.967-2.142-1.734-3.176-2.62a10.344,10.344,0,0,1,2.583-.934c2.9-.5,5.6,1.511,7.786,3.472a11.005,11.005,0,0,1,1.979,2.145,10.77,10.77,0,0,1,1.209,3.121C993.966,745.833,994.628,748.982,993.244,751.55Z" transform="translate(-711.24 -541.293)" opacity="0.1"/><path d="M697.969,300.426a11.074,11.074,0,0,0-2.417,2.8,13.833,13.833,0,0,1-4.859,4.78,5.9,5.9,0,0,0-2.212,1.384,3.729,3.729,0,0,0-.589,1.55,30.716,30.716,0,0,0-.622,5.922,6.582,6.582,0,0,0,.48,2.913,9.978,9.978,0,0,1,1.314,2.484,7.523,7.523,0,0,1-.242,2.157,1.826,1.826,0,0,0,.737,1.922,4.469,4.469,0,0,0,1.118.263c2.009.447,2.683,2.8,2.988,4.753.683-.039.991-.822,1.133-1.459l2.094-9.309c.227-1.009.6-2.178,1.61-2.532a5.157,5.157,0,0,1,2.115.045c2.765.227,5.1-1.91,7.808-2.5a9.971,9.971,0,0,1,2.632-.172c2.133.106,4.614.982,5.067,2.973.076.323.121.71.423.87s.6.024.937,0c1.354-.136,2.151,1.387,2.541,2.632l1.42,4.532c.212.686.568,1.493,1.311,1.58a1.37,1.37,0,0,0,1.372-1.209,5.294,5.294,0,0,0-.269-1.958c-.668-2.976.354-6.022.976-9s.734-6.409-1.354-8.7c-.758-.831-1.755-1.45-2.463-2.327-.659-.822-1.03-1.831-1.713-2.638-1.888-2.227-6.732-3.946-9.7-4.23C706.224,297.573,700.713,298.435,697.969,300.426Z" transform="translate(-507.223 -236.79)" fill="#3f3d56"/><g transform="translate(180.05 74.562)" opacity="0.1"><path d="M726.331,361.527c-.743-.091-1.1-.906-1.311-1.58q-.71-2.269-1.42-4.532c-.39-1.248-1.187-2.771-2.541-2.632-.3.033-.659.157-.937,0s-.347-.547-.423-.87c-.453-1.994-2.934-2.867-5.067-2.973a10.1,10.1,0,0,0-2.632.172c-2.719.6-5.043,2.719-7.808,2.5a5.213,5.213,0,0,0-2.115-.042c-1.018.35-1.384,1.511-1.61,2.532l-2.094,9.306c-.142.641-.45,1.423-1.133,1.459-.3-1.946-.979-4.3-2.988-4.75a4.75,4.75,0,0,1-1.118-.263,1.311,1.311,0,0,1-.583-.65c-.054.281-.118.562-.154.843a1.833,1.833,0,0,0,.737,1.922,4.469,4.469,0,0,0,1.118.263c2.009.447,2.683,2.8,2.988,4.753.683-.039.991-.822,1.133-1.459l2.094-9.309c.227-1.009.6-2.178,1.61-2.532a5.156,5.156,0,0,1,2.115.045c2.765.227,5.1-1.91,7.808-2.5a9.972,9.972,0,0,1,2.62-.172c2.133.106,4.614.982,5.067,2.973.076.323.121.71.423.87s.6.024.937,0c1.354-.136,2.151,1.387,2.541,2.632q.707,2.269,1.42,4.532c.212.686.568,1.493,1.311,1.58a1.37,1.37,0,0,0,1.372-1.209,4.1,4.1,0,0,0-.181-1.6A1.248,1.248,0,0,1,726.331,361.527Z" transform="translate(-690.834 -346.982)"/><path d="M689.075,361.687a10.184,10.184,0,0,0-1.314-2.484,4.97,4.97,0,0,1-.447-1.813c0,.338-.03.677-.033,1.018a6.582,6.582,0,0,0,.48,2.913c.335.686.888,1.29,1.166,1.988A4.551,4.551,0,0,0,689.075,361.687Z" transform="translate(-687.28 -352.894)"/><path d="M808.887,344.873c-.55,2.635-1.408,5.318-1.142,7.959a51.815,51.815,0,0,1,1.142-5.844,15.41,15.41,0,0,0,.35-4.478,18.465,18.465,0,0,1-.351,2.363Z" transform="translate(-771.312 -342.51)"/></g><path d="M634.47,546.221c-.366,6-4.768,10.959-6.445,16.73a34.909,34.909,0,0,1-1.266,4.318,13.633,13.633,0,0,1-6.345,6.185,9.53,9.53,0,0,1-3.124,1.136,5.989,5.989,0,0,1-6.016-3.2,25.344,25.344,0,0,1-1.209-4.532c-.468-1.743-1.345-3.351-1.916-5.064a18.472,18.472,0,0,1-.3-9.841,30.214,30.214,0,0,1,3.242-8.025c.212-.372.426-.74.647-1.106a25.139,25.139,0,0,1,2.094-3.022,33.4,33.4,0,0,1,6.448-5.52,1.511,1.511,0,0,1,.6-.3h.036a1.459,1.459,0,0,1,.746.175,59.091,59.091,0,0,1,9.17,4.967c1.039.692,2.68,1.465,3.224,2.644A10.729,10.729,0,0,1,634.47,546.221Z" transform="translate(-451.435 -401.564)" fill="#fbbebe"/><path d="M643.684,478.658a3.128,3.128,0,0,0-.671,1.073,50.717,50.717,0,0,0-4.26,17.41,1.741,1.741,0,0,1-.2.843,3.691,3.691,0,0,1-.444.48,1.668,1.668,0,0,0,.284,2.417,3.248,3.248,0,0,1,2.753-1.326c5.079-.4,10.04,1.961,15.135,1.783-.36-1.242-.876-2.435-1.169-3.692-1.3-5.581,1.937-11.657-.045-17.032a4.392,4.392,0,0,0-2.1-2.6,5.593,5.593,0,0,0-1.345-.357c-1.287-.233-3.849-1.227-5.094-.828-.459.148-.641.58-1.021.84C644.944,478.036,644.176,478.166,643.684,478.658Z" transform="translate(-472.644 -361.615)" fill="#f86d70"/><path d="M629.463,569.091a8.91,8.91,0,0,1-7.554,4.384,5.952,5.952,0,0,1-2.417-.444c-1.931-.852-3.022-2.961-3.426-5.034s-.278-4.212-.565-6.306c-.23-1.668-.719-3.287-.973-4.952-.622-4.118.6-8.185,1.478-12.285.211-.372.426-.74.647-1.106a25.138,25.138,0,0,1,2.094-3.021,33.4,33.4,0,0,1,6.448-5.52h-2.417a.414.414,0,0,1,.656.287c.239,2.115,3.221,4.23,3.871,6.285.4,1.263.885,2.5,1.209,3.789a30.343,30.343,0,0,1,.58,3.324q.644,4.692,1.281,9.367C630.908,561.661,631.367,565.773,629.463,569.091Z" transform="translate(-456.342 -402.086)" opacity="0.1"/><path d="M621.459,441.357l2.916-9.146a15.878,15.878,0,0,0,.928-4.2,5.378,5.378,0,0,0-1.333-3.973,17.288,17.288,0,0,0-2.913-1.91c-2.417-1.629-3.626-4.481-4.886-7.107s-2.919-5.372-5.668-6.345c-.634-.224-1.511-.242-1.795.366a1.285,1.285,0,0,0-.045.792,9.023,9.023,0,0,0,2.136,3.626c1.459,1.888,2.68,4.2,2.33,6.563-.417,2.8-2.931,4.967-3.233,7.78a35.95,35.95,0,0,0,.181,3.729,10.41,10.41,0,0,0,.045,2.317,15.6,15.6,0,0,0,.638,1.716,10.023,10.023,0,0,1,.417,2.783l.638,11.893c.344,6.433-3.145,12.69-2.185,19.035.254,1.665.743,3.284.973,4.952.3,2.094.16,4.23.565,6.306s1.511,4.182,3.426,5.034a5.952,5.952,0,0,0,2.417.444,8.91,8.91,0,0,0,7.554-4.384c1.9-3.324,1.444-7.43.925-11.219l-1.281-9.367a30.368,30.368,0,0,0-.58-3.324c-.32-1.287-.8-2.526-1.209-3.789C621.123,449.8,620.154,445.46,621.459,441.357Z" transform="translate(-452.338 -314.025)" fill="#fbbebe"/><rect width="67.379" height="42.905" rx="7.97" transform="translate(181.766 128.042)" fill="#3f3d56"/><rect width="67.379" height="42.905" rx="7.97" transform="translate(181.766 128.042)" opacity="0.2"/><circle cx="1.813" cy="1.813" r="1.813" transform="translate(213.491 147.682)" fill="#fff"/><path d="M431.994,611h3.659a7.554,7.554,0,0,1,7.554,7.554v11.213H424.44V618.554A7.554,7.554,0,0,1,431.994,611Z" transform="translate(-296.194 -426.353)" fill="#3f3d56"/><path d="M431.994,611h3.659a7.554,7.554,0,0,1,7.554,7.554v11.213H424.44V618.554A7.554,7.554,0,0,1,431.994,611Z" transform="translate(-296.194 -426.353)" opacity="0.1"/><circle cx="1.502" cy="1.502" r="1.502" transform="translate(135.38 185.774)" fill="#3f3d56"/><circle cx="1.502" cy="1.502" r="1.502" transform="translate(135.38 183.897)" fill="#3f3d56"/><circle cx="1.502" cy="1.502" r="1.502" transform="translate(135.38 182.021)" fill="#3f3d56"/><circle cx="1.502" cy="1.502" r="1.502" transform="translate(135.38 180.145)" fill="#3f3d56"/><circle cx="1.502" cy="1.502" r="1.502" transform="translate(135.38 178.268)" fill="#3f3d56"/><circle cx="1.502" cy="1.502" r="1.502" transform="translate(135.38 176.392)" fill="#3f3d56"/><circle cx="1.502" cy="1.502" r="1.502" transform="translate(135.38 174.515)" fill="#3f3d56"/><circle cx="1.502" cy="1.502" r="1.502" transform="translate(137.631 175.265)" fill="#3f3d56"/><circle cx="1.502" cy="1.502" r="1.502" transform="translate(139.133 174.515)" fill="#3f3d56"/><circle cx="1.502" cy="1.502" r="1.502" transform="translate(140.634 173.763)" fill="#3f3d56"/><circle cx="1.502" cy="1.502" r="1.502" transform="translate(135.38 172.636)" fill="#3f3d56"/><circle cx="1.502" cy="1.502" r="1.502" transform="translate(135.38 170.76)" fill="#3f3d56"/><circle cx="1.502" cy="1.502" r="1.502" transform="translate(135.38 168.883)" fill="#3f3d56"/><circle cx="1.502" cy="1.502" r="1.502" transform="translate(135.38 167.007)" fill="#3f3d56"/><path d="M535.912,625.217c-.372.054-.746.094-1.121.118a8.637,8.637,0,0,0,.967-.991,6.41,6.41,0,0,0-.906-1.761,3.087,3.087,0,0,1-1.209.381c-.372.054-.746.1-1.121.121a20.682,20.682,0,0,0,1.435-1.511,6.375,6.375,0,1,0,2.112,4.729,6.245,6.245,0,0,0-.1-1.1Z" transform="translate(-392.81 -461.552)" fill="#2d8ceb"/><path d="M567.8,660.4a2.97,2.97,0,0,1-1.263.423c-.372.054-.746.094-1.121.118a11,11,0,0,0,1.112-1.154,3.759,3.759,0,1,0,1.272.6Z" transform="translate(-419.678 -489.276)" fill="#2d8ceb"/><circle cx="1.502" cy="1.502" r="1.502" transform="translate(133.126 175.265)" fill="#3f3d56"/><circle cx="1.502" cy="1.502" r="1.502" transform="translate(131.624 174.515)" fill="#3f3d56"/><circle cx="1.502" cy="1.502" r="1.502" transform="translate(130.122 173.763)" fill="#3f3d56"/><path d="M503.646,660.4a2.956,2.956,0,0,0,1.263.423c.372.054.746.094,1.121.118a10.7,10.7,0,0,1-1.112-1.154,3.759,3.759,0,1,1-1.272.6Z" transform="translate(-378.008 -489.276)" fill="#2d8ceb"/><path d="M431.994,614.73h3.659a7.554,7.554,0,0,1,7.554,7.554v9.932a1.281,1.281,0,0,1-1.281,1.281h-16.2a1.281,1.281,0,0,1-1.281-1.281v-9.932A7.554,7.554,0,0,1,431.994,614.73Z" transform="translate(-296.194 -428.956)" fill="#3f3d56"/><g transform="translate(130.588 158.455)" opacity="0.1"><path d="M564.263,638.77a5.688,5.688,0,0,1-.483.459,4.894,4.894,0,0,0,.514-.045C564.288,639.045,564.279,638.906,564.263,638.77Z" transform="translate(-551.633 -633.148)"/><path d="M556.32,629.941c.378-.024.749-.063,1.124-.118a3.624,3.624,0,0,0,.976-.266,6.629,6.629,0,0,0-.526-.867,2.271,2.271,0,0,1-.6.257A8.71,8.71,0,0,1,556.32,629.941Z" transform="translate(-546.428 -626.114)"/><path d="M524.242,627.215a6.369,6.369,0,0,1,9.82-5.366l.1-.1a6.375,6.375,0,1,0-8.406,9.587A6.345,6.345,0,0,1,524.242,627.215Z" transform="translate(-523.58 -620.165)"/></g><g transform="translate(142.136 170.385)" opacity="0.1"><path d="M573.72,663.369c.375-.024.749-.063,1.121-.118a2.93,2.93,0,0,0,1.263-.423,3.756,3.756,0,0,1,1.511,2.659,3.445,3.445,0,0,0,.021-.4,3.741,3.741,0,0,0-1.511-3.021,2.97,2.97,0,0,1-1.263.423l-.3.036a7.66,7.66,0,0,1-.84.84Z" transform="translate(-570.118 -661.339)"/><path d="M565.553,660.4a3.077,3.077,0,0,1,.375.027c.2-.208.39-.432.586-.65A3.747,3.747,0,0,0,561.8,663.4a2.581,2.581,0,0,0,.018.375A3.753,3.753,0,0,1,565.553,660.4Z" transform="translate(-561.8 -659.65)"/></g><g transform="translate(124.107 170.385)" opacity="0.1"><path d="M506.046,663.369c-.375-.024-.749-.063-1.121-.118a2.915,2.915,0,0,1-1.263-.423,3.756,3.756,0,0,0-1.511,2.659,3.445,3.445,0,0,1-.021-.4,3.741,3.741,0,0,1,1.511-3.021,2.955,2.955,0,0,0,1.263.423l.3.036A7.147,7.147,0,0,0,506.046,663.369Z" transform="translate(-502.13 -661.339)"/><path d="M512.371,660.4a3.127,3.127,0,0,0-.378.027c-.193-.208-.387-.432-.583-.65a3.747,3.747,0,0,1,4.714,3.626,2.581,2.581,0,0,1-.018.375A3.753,3.753,0,0,0,512.371,660.4Z" transform="translate(-508.606 -659.65)"/></g><path d="M0,0H65.286V26.589H0Z" transform="translate(50.775 54.315)" fill="#2d8ceb"/><rect width="112.097" height="26.589" rx="12" transform="translate(47.775 54.315)" fill="none" stroke="#3f3d56" stroke-miterlimit="10" stroke-width="6"/><path d="M420.107,304.619a5.469,5.469,0,0,0-10.222-1.447,4.375,4.375,0,0,0,.474,8.726h9.494a3.659,3.659,0,0,0,3.65-3.665A3.6,3.6,0,0,0,420.107,304.619Zm-4.2,2.154v2.774h-2.339v-2.774h-2.481l3.65-3.653,3.65,3.653Z" transform="translate(-310.917 -238.433)" fill="#fff"/></g></svg>
