<svg xmlns="http://www.w3.org/2000/svg" viewBox="0 0 204.218 212.52"><g transform="translate(-87.558 0)"><path d="M614.663,261.747a34.867,34.867,0,1,1,34.866-34.867A34.867,34.867,0,0,1,614.663,261.747Zm0-68.073a33.206,33.206,0,1,0,33.206,33.206A33.206,33.206,0,0,0,614.663,193.674Z" transform="translate(-492.239 -192.014)" fill="#ccc"/><path d="M776.663,300.747a34.867,34.867,0,1,1,34.866-34.866,34.867,34.867,0,0,1-34.866,34.866Zm0-68.073a33.206,33.206,0,1,0,33.206,33.206A33.206,33.206,0,0,0,776.663,232.674Z" transform="translate(-519.754 -198.638)" fill="#ccc"/><path d="M701.664,433.747A34.867,34.867,0,1,1,736.53,398.88,34.866,34.866,0,0,1,701.664,433.747Zm0-68.073A33.206,33.206,0,1,0,734.87,398.88,33.206,33.206,0,0,0,701.664,365.674Z" transform="translate(-507.016 -221.227)" fill="#ccc"/><path d="M800.154,260.323l4.151-.83s-3.487,3.9-4.151,4.151h0a16.693,16.693,0,0,0,0,2.49c-7.969,34.2-37.357,19.094-37.357,19.094,10.709.249,11.622-4.151,11.622-4.151-6.226-.913-7.472-4.981-7.472-4.981a2.565,2.565,0,0,0,3.32-.83c-6.724-1.743-5.811-8.3-5.811-8.3a8.634,8.634,0,0,0,4.068,1.577c-.747-.913-7.057-8.468-3.238-12.369,0,0,4.649,8.3,16.852,9.049l.83-.166a6.51,6.51,0,0,1-.166-1.826,8.717,8.717,0,0,1,8.717-8.717c5.811,0,7.056,3.321,7.056,3.321l4.151-2.49C802.644,255.342,802.229,259.493,800.154,260.323Z" transform="translate(-523.321 -202.629)" fill="#3f3d56"/><path d="M720.528,383.011l-30.768,0a3.007,3.007,0,0,0-3.15,2.872l0,30.836a3.244,3.244,0,0,0,3.151,3.159l30.759,0a3.079,3.079,0,0,0,2.957-3.16l0-30.836a2.826,2.826,0,0,0-2.949-2.871ZM698.04,413.744h-5.281l0-16.421h5.282Zm-2.46-18.918h-.038a2.867,2.867,0,1,1,.038,0Zm21.762,18.916h-5.281v-8.979c0-2.151-.769-3.621-2.68-3.621a2.888,2.888,0,0,0-2.708,1.95,3.558,3.558,0,0,0-.183,1.3v9.353h-5.281V397.322h5.281v2.285a5.348,5.348,0,0,1,4.763-2.67c3.467,0,6.09,2.285,6.09,7.212Z" transform="translate(-510.381 -224.453)" fill="#3f3d56"/><path d="M639.926,229.516a22.793,22.793,0,1,0-26.354,22.517V236.107h-5.788v-6.591h5.789v-5.023c0-5.711,3.4-8.869,8.609-8.869a35.018,35.018,0,0,1,5.1.446v5.61h-2.875c-2.83,0-3.715,1.756-3.715,3.561v4.276h6.321l-1.009,6.591h-5.312v15.928a22.8,22.8,0,0,0,19.233-22.519Z" transform="translate(-494.709 -194.513)" fill="#3f3d56" fill-rule="evenodd"/></g></svg>
