<svg xmlns="http://www.w3.org/2000/svg" viewBox="0 0 950 737.399"><g transform="translate(-840.647 -196.848)"><g transform="translate(840.647 280.079)"><path d="M949.941,352.038c3.976,149.507-195.319,302.13-444.084,302.13S-139.075,359.419,49.078,352.038c362.543-14.221,486.782-164.367,450.429-270.8C434.406-109.384,942.111,57.657,949.941,352.038Z" transform="translate(0 0)" fill="#3f3d56"/><path d="M0,5.489,3.033,3.558,1.1.525,1.931,0,3.86,3.033,6.893,1.1l.527.827L4.386,3.86,6.317,6.893l-.828.527L3.56,4.386.527,6.315Z" transform="translate(619.041 228.137)" fill="#6c63ff"/><path d="M0,5.489,3.033,3.558,1.1.525,1.931,0,3.86,3.033,6.893,1.1l.527.826L4.386,3.859,6.317,6.893l-.828.527L3.56,4.386.527,6.315Z" transform="translate(393.494 447.748)" fill="#6c63ff"/><path d="M0,5.489l3.033-1.93L1.1.525,1.931,0,3.859,3.033,6.893,1.1l.527.827L4.386,3.859,6.317,6.892l-.828.527L3.56,4.386.527,6.315Z" transform="translate(758.523 421.039)" fill="#6c63ff"/><path d="M0,5.489,3.033,3.558,1.1.525,1.931,0,3.86,3.033,6.893,1.1l.527.826L4.386,3.859,6.317,6.892l-.828.527L3.56,4.386.527,6.315Z" transform="translate(485.493 563.489)" fill="#6c63ff"/><path d="M0,5.489l3.033-1.93L1.1.525,1.931,0,3.859,3.033,6.893,1.1l.527.826L4.386,3.859,6.317,6.893l-.828.527L3.56,4.386.527,6.315Z" transform="translate(739.233 508.586)" fill="#6c63ff"/><path d="M0,5.489,3.033,3.558,1.1.525,1.93,0,3.859,3.033,6.893,1.1l.527.827L4.386,3.86l1.93,3.033-.828.527L3.56,4.386.527,6.315Z" transform="translate(127.884 435.877)" fill="#6c63ff"/><path d="M0,5.489,3.033,3.558,1.1.525,1.93,0,3.859,3.033,6.893,1.1l.527.827L4.386,3.86l1.93,3.033-.828.527L3.56,4.386.527,6.315Z" transform="translate(801.555 256.331)" fill="#6c63ff"/><path d="M0,7.683l4.247-2.7L1.545.736,2.7,0,5.4,4.245l4.245-2.7L10.387,2.7,6.14,5.4l2.7,4.247-1.158.737L4.983,6.14.738,8.842Z" transform="translate(547.815 287.492)" fill="#fff"/><ellipse cx="4.452" cy="4.452" rx="4.452" ry="4.452" transform="translate(696.201 342.394)" fill="#6c63ff"/><ellipse cx="4.452" cy="4.452" rx="4.452" ry="4.452" transform="translate(869.813 342.394)" fill="#6c63ff"/><ellipse cx="4.452" cy="4.452" rx="4.452" ry="4.452" transform="translate(567.106 179.17)" fill="#6c63ff"/><ellipse cx="4.452" cy="4.452" rx="4.452" ry="4.452" transform="translate(608.654 450.716)" fill="#6c63ff"/><ellipse cx="2.968" cy="2.968" rx="2.968" ry="2.968" transform="translate(613.105 358.717)" fill="#6c63ff"/><ellipse cx="2.968" cy="2.968" rx="2.968" ry="2.968" transform="translate(308.915 489.296)" fill="#ff6584"/><ellipse cx="2.968" cy="2.968" rx="2.968" ry="2.968" transform="translate(762.975 327.556)" fill="#ff6584"/><ellipse cx="2.968" cy="2.968" rx="2.968" ry="2.968" transform="translate(577.493 87.17)" fill="#ff6584"/><ellipse cx="2.968" cy="2.968" rx="2.968" ry="2.968" transform="translate(699.169 225.17)" fill="#6c63ff"/><ellipse cx="2.968" cy="2.968" rx="2.968" ry="2.968" transform="translate(662.073 125.751)" fill="#fff"/><ellipse cx="4.452" cy="4.452" rx="4.452" ry="4.452" transform="translate(216.915 391.362)" fill="#6c63ff"/><ellipse cx="4.452" cy="4.452" rx="4.452" ry="4.452" transform="translate(512.203 407.684)" fill="#6c63ff"/><ellipse cx="14.839" cy="14.839" rx="14.839" ry="14.839" transform="translate(577.493 502.651)" fill="#6c63ff"/><ellipse cx="4.452" cy="4.452" rx="4.452" ry="4.452" transform="translate(408.333 351.297)" fill="#fff"/></g><g transform="translate(923.917 227.743)"><rect width="1.864" height="174.27" transform="translate(102.741)" fill="#e6e6e6"/><path d="M165,230.2a1.126,1.126,0,0,0-1.125,1.125V378.38A1.126,1.126,0,0,0,165,379.505H369.869a1.126,1.126,0,0,0,1.125-1.125V231.328a1.126,1.126,0,0,0-1.125-1.125Z" transform="translate(-163.877 -133.889)" fill="#e6e6e6"/><path d="M359.435,243.032v104.5a2.63,2.63,0,0,1-2.629,2.631H179.4a2.226,2.226,0,0,1-.377-.029,2.629,2.629,0,0,1-2.254-2.6v-104.5A2.63,2.63,0,0,1,179.4,240.4H356.8a2.63,2.63,0,0,1,2.631,2.629Z" transform="translate(-164.755 -134.583)" fill="#fff"/><path d="M294.125,351.716H180.891a2.316,2.316,0,0,1-.423-.034l53.554-92.764a3.75,3.75,0,0,1,6.527,0l35.942,62.252,1.722,2.979Z" transform="translate(-165.006 -135.714)" fill="#e6e6e6"/><path d="M135.726,229.55H97.066l18.978-27.567L117.41,200l.683-.993,1.722,2.978Z" transform="translate(-6.608 -13.547)" opacity="0.2"/><path d="M362.927,353.713H264.989l18.978-27.567,1.366-1.986,24.731-35.925a5,5,0,0,1,7.428-.444,4.471,4.471,0,0,1,.356.444Z" transform="translate(-170.76 -137.711)" fill="#e6e6e6"/><circle cx="3.728" cy="3.728" r="3.728" transform="translate(99.945 95.988)" fill="#fff"/><rect width="1.864" height="174.27" transform="translate(405.617)" fill="#e6e6e6"/><path d="M490,230.2a1.126,1.126,0,0,0-1.125,1.125V378.38A1.126,1.126,0,0,0,490,379.505H694.869a1.126,1.126,0,0,0,1.125-1.125V231.328a1.126,1.126,0,0,0-1.125-1.125Z" transform="translate(-186.001 -133.889)" fill="#e6e6e6"/><path d="M684.435,243.032v104.5a2.63,2.63,0,0,1-2.629,2.631H504.4a2.226,2.226,0,0,1-.377-.029,2.629,2.629,0,0,1-2.254-2.6v-104.5A2.63,2.63,0,0,1,504.4,240.4H681.8a2.63,2.63,0,0,1,2.631,2.629Z" transform="translate(-186.879 -134.583)" fill="#fff"/><path d="M619.125,351.716H505.891a2.316,2.316,0,0,1-.423-.034l53.555-92.764a3.75,3.75,0,0,1,6.527,0l35.942,62.252,1.722,2.979Z" transform="translate(-187.131 -135.714)" fill="#6c63ff"/><path d="M460.726,229.55h-38.66l18.978-27.567L442.41,200l.683-.993,1.722,2.978Z" transform="translate(-28.732 -13.547)" opacity="0.2"/><path d="M687.927,354.282H589.989l18.979-27.8,1.366-2,24.731-36.228a4.977,4.977,0,0,1,7.428-.448,4.512,4.512,0,0,1,.356.448Z" transform="translate(-192.884 -137.711)" fill="#eba42d"/><circle cx="3.728" cy="3.728" r="3.728" transform="translate(402.821 95.988)" fill="#fff"/><rect width="1.864" height="174.27" transform="translate(708.492)" fill="#e6e6e6"/><path d="M815,230.2a1.126,1.126,0,0,0-1.125,1.125V378.38A1.126,1.126,0,0,0,815,379.505h204.867a1.126,1.126,0,0,0,1.125-1.125V231.328a1.126,1.126,0,0,0-1.125-1.125Z" transform="translate(-208.125 -133.889)" fill="#e6e6e6"/><path d="M1009.437,243.032v104.5a2.63,2.63,0,0,1-2.629,2.631h-177.4a2.226,2.226,0,0,1-.377-.029,2.629,2.629,0,0,1-2.254-2.6v-104.5A2.63,2.63,0,0,1,829.4,240.4h177.4a2.63,2.63,0,0,1,2.631,2.629Z" transform="translate(-209.003 -134.583)" fill="#fff"/><path d="M944.125,351.716H830.891a2.323,2.323,0,0,1-.423-.034l53.555-92.764a3.75,3.75,0,0,1,6.527,0l35.942,62.252,1.722,2.979Z" transform="translate(-209.255 -135.714)" fill="#e6e6e6"/><path d="M785.726,229.55h-38.66l18.978-27.567L767.41,200l.683-.993,1.722,2.978Z" transform="translate(-50.856 -13.547)" opacity="0.2"/><path d="M1012.926,353.713H914.989l18.979-27.567,1.366-1.986,24.731-35.925a5,5,0,0,1,7.428-.444,4.457,4.457,0,0,1,.356.444Z" transform="translate(-215.008 -137.711)" fill="#e6e6e6"/><circle cx="3.728" cy="3.728" r="3.728" transform="translate(705.697 95.988)" fill="#fff"/><path d="M847.182,531.454l1.741,11.894a10.518,10.518,0,0,1-11.86,11.94h0a10.518,10.518,0,0,1-8.357-14.208L834.61,525.8l-3.143-103.09,18.229-6.915Z" transform="translate(-209.087 -146.522)" fill="#a0616a"/><circle cx="25.144" cy="25.144" r="25.144" transform="translate(561.405 163.665)" fill="#a0616a"/><path d="M822.251,377.516l-46.516-1.886c5.164-11.31,7.213-22.25,5.029-32.687h30.8C809.945,352.787,814.415,364.606,822.251,377.516Z" transform="translate(-205.529 -141.563)" fill="#a0616a"/><path d="M812.352,477.185l-68.517,5.029,2.491-38.718c-7.9-18.781-6.635-32.344,2.659-41.329l.842-13.082a20.065,20.065,0,0,1,14.824-18.092l11.872-3.185c15.372,9.005,27.627,8.882,36.459-1.257l14.13,7.237a18.956,18.956,0,0,1,10.2,18.965Z" transform="translate(-203.173 -143.17)" fill="#eba42d"/><path d="M702.605,483.942,683.265,494.1a8.337,8.337,0,0,1-10.134-1.874h0a8.337,8.337,0,0,1,4.588-13.676l13.572-2.776,42.117-16.343,6.915-49.031,19.486,5.029-3.772,57.831Z" transform="translate(-198.403 -146.155)" fill="#a0616a"/><path d="M850.977,416.317,829.6,428.89,828.347,378.6l3.685-1.257a18.945,18.945,0,0,1,18.945,18.945Z" transform="translate(-209.11 -143.905)" fill="#eba42d"/><path d="M826.424,731.671l-18.174-2.843c-3.669-62.092-11.061-120.06-24.257-171.594-30.516,40.437-56.1,100.034-77.946,174.122L684.674,725.7,740.62,481.8l66.632-1.257C834.5,517.856,826.524,633.09,826.424,731.671Z" transform="translate(-199.33 -150.93)" fill="#2f2e41"/><path d="M694.783,770.968l-31.577-4.427a6.226,6.226,0,0,1-5.142-7.8h0a6.226,6.226,0,0,1,5.117-4.524l5.611-.811,17.742-10.836,14.676,3.914,4.352,12.843a9.662,9.662,0,0,1-10.778,11.645Z" transform="translate(-197.503 -168.768)" fill="#2f2e41"/><path d="M827.663,770.968l-31.577-4.427a6.226,6.226,0,0,1-5.142-7.8h0a6.226,6.226,0,0,1,5.117-4.524l5.611-.811,17.742-10.836,14.676,3.914,4.352,12.843a9.662,9.662,0,0,1-10.778,11.645Z" transform="translate(-206.549 -168.768)" fill="#2f2e41"/><path d="M768,425.425c-5.716-12.563-15.585-17.43-32.059-10.058l2.221-16.381a31.829,31.829,0,0,1,22.923-26.363h0Z" transform="translate(-202.82 -143.584)" fill="#eba42d"/><path d="M761.419,313.95s-3.956-30.784,28.319-20.689c0,0,23.051-4.229,30.61,24.6L828,348.089l-3.73-2.03-1.739,3.8-6.045,1.531-2.587-5.134-1.251,6.235-49.511,4.936s22.175-13.114,22.526-36.617l-4.224,4.463Z" transform="translate(-204.544 -138.043)" fill="#2f2e41"/><circle cx="12.449" cy="12.449" r="12.449" transform="translate(599.287 143.07)" fill="#2f2e41"/><path d="M806.419,289.6a12.44,12.44,0,0,1,12.444-11.636c-.257-.033-.512-.072-.774-.089a12.449,12.449,0,0,0-1.6,24.848c.262.017.52.01.779.011A12.44,12.44,0,0,1,806.419,289.6Z" transform="translate(-207.51 -137.132)" fill="#2f2e41"/><path d="M284.52,415.476V440.2a.622.622,0,0,1-.622.623H241.924a.523.523,0,0,1-.089-.007.622.622,0,0,1-.533-.616V415.476a.622.622,0,0,1,.622-.623H283.9a.622.622,0,0,1,.622.622Z" transform="translate(-169.147 -146.459)" fill="#e6e6e6"/><path d="M620.52,415.476V440.2a.622.622,0,0,1-.622.623H577.924a.524.524,0,0,1-.089-.007.622.622,0,0,1-.533-.616V415.476a.622.622,0,0,1,.622-.623H619.9a.622.622,0,0,1,.623.622Z" transform="translate(-192.021 -146.459)" fill="#eba42d"/><path d="M945.52,415.476V440.2a.622.622,0,0,1-.622.623H902.923a.523.523,0,0,1-.089-.007.622.622,0,0,1-.533-.616V415.476a.622.622,0,0,1,.622-.623H944.9a.622.622,0,0,1,.623.622Z" transform="translate(-214.145 -146.459)" fill="#e6e6e6"/><g transform="translate(554.896 177.998)"><rect width="27.948" height="20.724" rx="4.08" fill="#7679b4"/><rect width="24.659" height="18.286" rx="4.08" transform="translate(0.028 1.219)" fill="#565388"/><rect width="11.746" height="7.924" rx="2.44" transform="translate(26.733 6.705)" fill="#565388"/></g></g><g transform="translate(1083.867 649.921) rotate(115)" fill="none"><path d="M50.7,3.315a3,3,0,0,1,4.844,0L102.754,67.92a3,3,0,0,1-2.422,4.77H5.908a3,3,0,0,1-2.422-4.77Z" stroke="none"/><path d="M 53.11973190307617 4.084602355957031 C 52.93009185791016 4.084602355957031 52.57301712036133 4.137863159179688 52.31234741210938 4.494575500488281 L 5.100593566894531 69.10015869140625 C 4.773750305175781 69.54741668701172 4.932807922363281 69.97840118408203 5.016349792480469 70.14292907714844 C 5.099906921386719 70.30747222900391 5.354034423828125 70.69017791748047 5.907974243164063 70.69017791748047 L 100.3314895629883 70.690185546875 C 100.8854446411133 70.690185546875 101.1395874023438 70.30747222900391 101.22314453125 70.14292907714844 C 101.3066864013672 69.97838592529297 101.4657363891602 69.54741668701172 101.1388931274414 69.10015869140625 L 53.92712020874023 4.494560241699219 C 53.66644668579102 4.137863159179688 53.30937576293945 4.084602355957031 53.11973190307617 4.084602355957031 M 53.1197395324707 2.084602355957031 C 54.03122329711914 2.084602355957031 54.94270324707031 2.494583129882813 55.54190444946289 3.314544677734375 L 102.7536773681641 67.92013549804688 C 104.2021789550781 69.90227508544922 102.786506652832 72.69017791748047 100.3315048217773 72.690185546875 L 5.907974243164063 72.69017791748047 C 3.452972412109375 72.69017791748047 2.037315368652344 69.90227508544922 3.485801696777344 67.92013549804688 L 50.69756317138672 3.314544677734375 C 51.29676818847656 2.494583129882813 52.20825576782227 2.084602355957031 53.1197395324707 2.084602355957031 Z" stroke="none" fill="#eba42d"/></g><g transform="matrix(-0.259, -0.966, 0.966, -0.259, 1684.981, 318.281)" fill="none"><path d="M50.7,3.315a3,3,0,0,1,4.844,0L102.754,67.92a3,3,0,0,1-2.422,4.77H5.908a3,3,0,0,1-2.422-4.77Z" stroke="none"/><path d="M 53.1197395324707 4.084602355957031 C 52.93009567260742 4.084602355957031 52.57302474975586 4.137855529785156 52.31235504150391 4.494590759277344 L 5.1005859375 69.1002197265625 C 4.77374267578125 69.54747009277344 4.93280029296875 69.97846221923828 5.016342163085938 70.14299011230469 C 5.099899291992188 70.30753326416016 5.354026794433594 70.69023132324219 5.907966613769531 70.69023132324219 L 100.3315124511719 70.69023132324219 C 100.8854522705078 70.69023132324219 101.1395797729492 70.30753326416016 101.2231369018555 70.14299011230469 C 101.3066864013672 69.97846221923828 101.4657363891602 69.54747009277344 101.1388931274414 69.1002197265625 L 53.92713928222656 4.494598388671875 C 53.66643905639648 4.137870788574219 53.30938339233398 4.084602355957031 53.1197395324707 4.084602355957031 M 53.1197395324707 2.084602355957031 C 54.03122329711914 2.084602355957031 54.94270324707031 2.494590759277344 55.54191207885742 3.314559936523438 L 102.7536849975586 67.92018890380859 C 104.2021713256836 69.90232849121094 102.7865142822266 72.69023132324219 100.3315124511719 72.69023132324219 L 5.907966613769531 72.69023132324219 C 3.452964782714844 72.69023132324219 2.037307739257813 69.90232849121094 3.485794067382813 67.92018890380859 L 50.69756698608398 3.314559936523438 C 51.29677581787109 2.494590759277344 52.20825576782227 2.084602355957031 53.1197395324707 2.084602355957031 Z" stroke="none" fill="#eba42d"/></g><g transform="matrix(0.259, -0.966, 0.966, 0.259, 1639.426, 823.391)" fill="none"><path d="M50.7,3.315a3,3,0,0,1,4.844,0L102.754,67.92a3,3,0,0,1-2.422,4.77H5.908a3,3,0,0,1-2.422-4.77Z" stroke="none"/><path d="M 53.1197395324707 4.084602355957031 C 52.93009567260742 4.084602355957031 52.57302474975586 4.137855529785156 52.31235504150391 4.494590759277344 L 5.1005859375 69.1002197265625 C 4.77374267578125 69.54747009277344 4.93280029296875 69.97846221923828 5.016342163085938 70.14299011230469 C 5.099899291992188 70.30753326416016 5.354026794433594 70.69023132324219 5.907966613769531 70.69023132324219 L 100.3315124511719 70.69023132324219 C 100.8854522705078 70.69023132324219 101.1395797729492 70.30753326416016 101.2231369018555 70.14299011230469 C 101.3066864013672 69.97846221923828 101.4657363891602 69.54747009277344 101.1388931274414 69.1002197265625 L 53.92713928222656 4.494598388671875 C 53.66643905639648 4.137870788574219 53.30938339233398 4.084602355957031 53.1197395324707 4.084602355957031 M 53.1197395324707 2.084602355957031 C 54.03122329711914 2.084602355957031 54.94270324707031 2.494590759277344 55.54191207885742 3.314559936523438 L 102.7536849975586 67.92018890380859 C 104.2021713256836 69.90232849121094 102.7865142822266 72.69023132324219 100.3315124511719 72.69023132324219 L 5.907966613769531 72.69023132324219 C 3.452964782714844 72.69023132324219 2.037307739257813 69.90232849121094 3.485794067382813 67.92018890380859 L 50.69756698608398 3.314559936523438 C 51.29677581787109 2.494590759277344 52.20825576782227 2.084602355957031 53.1197395324707 2.084602355957031 Z" stroke="none" fill="#eba42d"/></g><g transform="translate(1016.178 622.88)" fill="none" stroke="#7dbcfc" stroke-width="2"><circle cx="12.115" cy="12.115" r="12.115" stroke="none"/><circle cx="12.115" cy="12.115" r="11.115" fill="none"/></g><circle cx="3.728" cy="3.728" r="3.728" transform="translate(1064.638 580.011)" fill="#7dbcfc"/><circle cx="3.728" cy="3.728" r="3.728" transform="translate(1085.14 587.466)" fill="#eba42d"/><g transform="translate(1064.638 597.718)" fill="none" stroke="#7dbcfc" stroke-width="2"><circle cx="3.728" cy="3.728" r="3.728" stroke="none"/><circle cx="3.728" cy="3.728" r="2.728" fill="none"/></g><g transform="translate(1064.638 580.011)"><circle cx="3.728" cy="3.728" r="3.728" fill="#7dbcfc"/><circle cx="3.728" cy="3.728" r="3.728" transform="translate(20.502 7.455)" fill="#eba42d"/><g transform="translate(0 17.707)" fill="none" stroke="#7dbcfc" stroke-width="2"><circle cx="3.728" cy="3.728" r="3.728" stroke="none"/><circle cx="3.728" cy="3.728" r="2.728" fill="none"/></g></g><circle cx="3.728" cy="3.728" r="3.728" transform="translate(1681.573 572.556)" fill="#7dbcfc"/><circle cx="3.728" cy="3.728" r="3.728" transform="translate(1113.098 230.539)" fill="#7dbcfc"/><circle cx="3.728" cy="3.728" r="3.728" transform="translate(1716.986 599.581)" fill="#eba42d"/><circle cx="3.728" cy="3.728" r="3.728" transform="translate(1148.511 257.565)" fill="#eba42d"/><g transform="translate(1755.195 556.713)" fill="none" stroke="#7dbcfc" stroke-width="2"><circle cx="3.728" cy="3.728" r="3.728" stroke="none"/><circle cx="3.728" cy="3.728" r="2.728" fill="none"/></g><g transform="translate(1186.72 214.696)" fill="none" stroke="#7dbcfc" stroke-width="2"><circle cx="3.728" cy="3.728" r="3.728" stroke="none"/><circle cx="3.728" cy="3.728" r="2.728" fill="none"/></g><g transform="translate(1084.066 702.616) rotate(-45)"><circle cx="3.728" cy="3.728" r="3.728" transform="translate(0 0)" fill="#7dbcfc"/><circle cx="3.728" cy="3.728" r="3.728" transform="translate(20.502 7.455)" fill="#eba42d"/><g transform="translate(0 17.707)" fill="none" stroke="#7dbcfc" stroke-width="2"><circle cx="3.728" cy="3.728" r="3.728" stroke="none"/><circle cx="3.728" cy="3.728" r="2.728" fill="none"/></g></g><g transform="translate(932.08 721.951) rotate(30)"><circle cx="3.728" cy="3.728" r="3.728" transform="translate(0 0)" fill="#7dbcfc"/><circle cx="3.728" cy="3.728" r="3.728" transform="translate(20.502 7.455)" fill="#eba42d"/><g transform="translate(0 17.707)" fill="none" stroke="#7dbcfc" stroke-width="2"><circle cx="3.728" cy="3.728" r="3.728" stroke="none"/><circle cx="3.728" cy="3.728" r="2.728" fill="none"/></g></g><g transform="matrix(0.966, 0.259, -0.259, 0.966, 1056.372, 682.734)" fill="none" stroke="#fedba1" stroke-linecap="round" stroke-linejoin="round" stroke-width="2"><rect width="8.387" height="21.434" rx="4.194" stroke="none"/><rect x="1" y="1" width="6.387" height="19.434" rx="3.194" fill="none"/></g></g></svg>
