<svg xmlns="http://www.w3.org/2000/svg" xmlns:xlink="http://www.w3.org/1999/xlink" viewBox="0 0 687.092 787.654"><defs><filter id="a" x="113.598" y="100.83" width="74.372" height="66.11" filterUnits="userSpaceOnUse"><feOffset dy="3" input="SourceAlpha"/><feGaussianBlur result="b"/><feFlood flood-opacity="0.259"/><feComposite operator="in" in2="b"/><feComposite in="SourceGraphic"/></filter></defs><g transform="translate(0 1.595)"><g transform="translate(0 0)"><g transform="translate(0 0)"><path d="M615.021,63.406c60.8,42.015,82.923,139.267,67.165,218.239s-69.55,139.56-118.255,183.486c-48.863,43.911-92.789,71-145.159,101.857-52.362,31.035-113.319,65.893-185.88,67.647C160.474,636.381,76.437,605.03,34.573,543.75-7.465,482.478-7.307,391.442,14.5,310.422,36.146,229.411,79.44,158.408,139.764,116.265s137.829-55.41,226.329-68.617S554.065,21.226,615.021,63.406Z" transform="translate(-0.003 -9.802)" fill="#ecf6ff"/><path d="M205.681,738.093,118.257,681.78,113.2,785.647l92.481-47.554" transform="translate(-28.014 -169.912)" fill="#d8dfff"/><rect width="380.376" height="633.262" transform="translate(176.373)" fill="none" stroke="#1b3c87" stroke-linecap="round" stroke-linejoin="round" stroke-width="3.19"/><path d="M295.764,552.672c-11.228,7.826-98.313,91.171-99,108.517s26.512,166.689,30.96,173.154h41.842s-3.763-143.556-.677-147.3,117.4-67.361,117.4-67.361S349.172,517.633,295.764,552.672Z" transform="translate(-48.689 -136.151)" fill="#3b3744"/><circle cx="27.814" cy="27.814" r="27.814" transform="translate(17.991 259.704)" fill="none" stroke="#b6c6fc" stroke-linecap="round" stroke-linejoin="round" stroke-width="3.19"/><circle cx="12.846" cy="12.846" r="12.846" transform="translate(69.014 122.199)" fill="none" stroke="#b6c6fc" stroke-linecap="round" stroke-linejoin="round" stroke-width="3.19"/><path d="M395.919,589.9l-62.529-76.76s69.046-46.906,111.919-46.7c2.837,5.652,108.8,204.693,150.72,283.462" transform="translate(-82.5 -116.625)" fill="none" stroke="#1b3c87" stroke-linecap="round" stroke-linejoin="round" stroke-width="3.19"/><line x1="95.754" y1="117.571" transform="translate(347.961 515.691)" fill="none" stroke="#1b3c87" stroke-linecap="round" stroke-linejoin="round" stroke-width="3.19"/><path d="M210.927,624.882c-11.695,13.546-19.95,25.015-20.161,30.305-.677,17.354,26.535,166.69,30.96,173.154h41.842s-3.763-143.556-.677-147.3,117.4-67.361,117.4-67.361S343.21,511.631,289.8,546.707c-4.982,3.469-24.872,21.786-45.537,42.617" transform="translate(-47.204 -134.672)" fill="none" stroke="#1b3c87" stroke-linecap="round" stroke-linejoin="round" stroke-width="3.19"/><line x2="84.684" transform="translate(156.4 693.677)" fill="none" stroke="#1b3c87" stroke-linecap="round" stroke-linejoin="round" stroke-width="3.19"/><line x2="84.677" transform="translate(155.64 710.97)" fill="none" stroke="#1b3c87" stroke-linecap="round" stroke-linejoin="round" stroke-width="3.19"/><path d="M266.16,952.35c-.436,6.532-1.505,18.129-1.505,18.129l13.749,33.112L174.65,1022.924l55.636-44.5-5.8-26.076" transform="translate(-43.22 -236.865)" fill="#fff"/><path d="M227.29,981.622l11.506-9.2-5.8-26.076" transform="translate(-56.245 -235.38)" fill="none" stroke="#1b3c87" stroke-linecap="round" stroke-linejoin="round" stroke-width="3.19"/><path d="M260.15,946.35c-.429,6.532-1.505,18.129-1.505,18.129l13.749,33.112L168.64,1016.924l23.878-19.085" transform="translate(-41.732 -235.38)" fill="none" stroke="#1b3c87" stroke-linecap="round" stroke-linejoin="round" stroke-width="3.19"/><path d="M601.629,751.357c-43.43-81.576-145.535-273.4-148.32-278.947-42.9-.2-111.919,46.7-111.919,46.7L530.536,751.357Z" transform="translate(-84.48 -118.102)" fill="#3b3744"/><path d="M164.038,386.833c-.753,9.444-3.83,55.914-3.83,59.993s-43.911,55.4-48,55.914-28.055-8.97-30.426-8.97-25.21,4.741-28.951,4.515-.753,7.112,13.35,6.991l-7.27-.753a43.086,43.086,0,0,1-7.563.753c-3.266,0-1.641,8.361,17.58,8.361,3.627,3.56,0,5.554,14.238,8.948s28.469,8.361,31.479,6.532c5.554-5.637,12.4-12.312,24.157-13.087,9.429-5.712,62.778-60.166,63.854-63.214s2.115-47.794,2.115-47.794S194.923,367.448,164.038,386.833Z" transform="translate(-12.379 -95.552)" fill="#fff"/><path d="M525.683,436.129c-10.664-10.912-14.946-23.329-16.925-29.507-4.177-4.989-72.3-61.009-76.135-62.717S391.94,330,391.94,330l15.849-47.207c5.268,2.672,40.457,21.071,45.063,24.51s74.006,86.859,75.706,88.8,14.1,3.6,15.051,7.277c2.912,11.409,13.1,22.1,24.751,29.011.218,3.228,1.43,14.682-15.683,20.086a64.328,64.328,0,0,1-26.949-16.345" transform="translate(-96.988 -71.181)" fill="#fff"/><path d="M203.77,102.08c36.122,0,53.491,46.658,58.7,55.689,20.319,35.37,61.709,44.4,61.709,83.533,0,10.536-99.336,33.865-105.357,33.865s-14.3-19.566-14.3-47.411c0-25.587-36.122-30.1-36.122-73C168.4,121.646,172.915,102.08,203.77,102.08Z" transform="translate(-41.673 -26.464)" fill="#ecc953"/><path d="M63.931,510.434c-19.22,0-20.846-8.361-17.58-8.361a41.693,41.693,0,0,0,7.563-.753l7.27.753c-14.1.12-17.1-7.24-13.358-6.991s26.588-4.515,28.958-4.515,26.339,9.482,30.426,8.97,48-51.828,48-55.914,3.063-50.549,3.83-59.993" transform="translate(-11.142 -96.134)" fill="none" stroke="#1b3c87" stroke-linecap="round" stroke-linejoin="round" stroke-width="3.19"/><path d="M172.336,517c-13.4,13.546-26.264,26.181-28.544,27.709-5,3.341-10.634,1.731-14.5,4.3s-9.189,10.129-13.057,10.129-27.558-6.607-36.589-8.052,5-9.422,20.319-6.4" transform="translate(-19.007 -129.137)" fill="none" stroke="#1b3c87" stroke-linecap="round" stroke-linejoin="round" stroke-width="3.19"/><path d="M247.51,447.08c0,5.328-1.151,16.293-2.115,18.227-.218.421-3.078,3.5-7.465,8.082" transform="translate(-58.878 -111.835)" fill="none" stroke="#1b3c87" stroke-linecap="round" stroke-linejoin="round" stroke-width="3.19"/><path d="M520.45,371.12c17.911,21.267,35.264,42.143,36.122,43.076,1.7,1.942,14.1,3.6,15.051,7.277,2.912,11.409,13.1,22.1,24.744,29.011" transform="translate(-128.788 -93.038)" fill="none" stroke="#1b3c87" stroke-linecap="round" stroke-linejoin="round" stroke-width="3.19"/><path d="M408,277.79c5.268,2.672,40.457,21.071,45.063,24.511,1.279.933,7.525,7.985,15.871,17.745" transform="translate(-100.962 -69.944)" fill="none" stroke="#1b3c87" stroke-linecap="round" stroke-linejoin="round" stroke-width="3.19"/><path d="M564.29,480.34c8.346,8.421,18.377,14.818,27.227,17.256" transform="translate(-139.637 -120.065)" fill="none" stroke="#1b3c87" stroke-linecap="round" stroke-linejoin="round" stroke-width="3.19"/><path d="M383.28,340.49c6.856,2.07,38.169,10.807,44.942,14.682S499.94,408.6,503.2,419.711a53.635,53.635,0,0,0,6.156,13.358" transform="translate(-94.845 -85.459)" fill="none" stroke="#1b3c87" stroke-linecap="round" stroke-linejoin="round" stroke-width="3.19"/><path d="M586.9,471c3.575,3.319,19.386,11.732,27.8,15.051" transform="translate(-145.231 -117.754)" fill="none" stroke="#1b3c87" stroke-linecap="round" stroke-linejoin="round" stroke-width="3.19"/><path d="M592,487.56c4.628,3.123,7.811,4.515,16.225,7.8" transform="translate(-146.493 -121.851)" fill="none" stroke="#1b3c87" stroke-linecap="round" stroke-linejoin="round" stroke-width="3.19"/><path d="M297.169,205.325c12.312,11.236,22,23.126,22,42.067,0,10.536-99.336,33.865-105.357,33.865s-14.3-19.566-14.3-47.411c0-25.587-36.122-30.1-36.122-73a185.354,185.354,0,0,1,.753-18.949" transform="translate(-40.432 -36.317)" fill="none" stroke="#1b3c87" stroke-linecap="round" stroke-linejoin="round" stroke-width="3.19"/><path d="M196.07,98.065a53.619,53.619,0,0,1,10.784-.986c36.122,0,53.491,46.658,58.7,55.689a99.987,99.987,0,0,0,18.212,22.471" transform="translate(-48.52 -25.226)" fill="none" stroke="#1b3c87" stroke-linecap="round" stroke-linejoin="round" stroke-width="3.19"/><path d="M222.8,299.786c-18.415-4.515-32.3,45.574-31.524,66.172,10.927,12.041,35.272,12.643,41.39,11.86S222.8,299.786,222.8,299.786Z" transform="translate(-47.327 -75.316)" fill="#46dbc9"/><path d="M187.423,346.192a80.452,80.452,0,0,0-1.136,14.765c10.927,12.041,35.272,12.643,41.39,11.86s-9.836-78.032-9.836-78.032c-10.965-2.694-20.319,13.975-25.933,32.254" transform="translate(-46.097 -74.078)" fill="none" stroke="#1b3c87" stroke-linecap="round" stroke-linejoin="round" stroke-width="3.19"/><path d="M248.417,263.015c52.55-23.525,122.921,66.728,176.014,156.643-6.7,14.592-94.46,66.224-123.636,65.765C273.53,454.577,174.765,296.022,248.417,263.015Z" transform="translate(-54.849 -65.351)" fill="#46dbc9"/><path d="M284.668,502.479C269.738,481.332,249.253,447.332,235,412.7" transform="translate(-58.153 -103.327)" fill="none" stroke="#1b3c87" stroke-linecap="round" stroke-linejoin="round" stroke-width="3.19"/><path d="M450.292,458.05l3.763,6.291c-4.688,10.22-49.164,38.628-85.414,54.567" transform="translate(-91.223 -114.549)" fill="none" stroke="#1b3c87" stroke-linecap="round" stroke-linejoin="round" stroke-width="3.19"/><path d="M218.421,341.54c-10.37-37.522-8.692-71.221,21-84.526,46.41-20.793,106.7,47.215,156.748,125.292" transform="translate(-52.621 -63.865)" fill="none" stroke="#1b3c87" stroke-linecap="round" stroke-linejoin="round" stroke-width="3.19"/><path d="M296.23,260c11.04-23.449,70.356-.926,88.048,10.957,1.452,9.9-13.2,50.421-21.643,54.379C350.346,324.277,282.5,289.17,296.23,260Z" transform="translate(-72.853 -63.007)" fill="#46dbc9"/><path d="M259.227,204.61c1.091,6.938,8.579,39.7,16.074,49.074-2.5,5.305-12.951,16.074-26.61,12.635-3.823-9.031-11.71-27.34-14.163-30.523S259.227,204.61,259.227,204.61Z" transform="translate(-57.998 -51.835)" fill="#fff"/><path d="M240.711,254.335c-4.026-9.324-9.264-21.071-11.183-23.54-2.453-3.183,24.7-31.186,24.7-31.186,1.091,6.938,8.579,39.7,16.074,49.074-1.738,3.687-7.33,10.024-15.171,12.379" transform="translate(-56.761 -50.598)" fill="none" stroke="#1b3c87" stroke-linecap="round" stroke-linejoin="round" stroke-width="3.19"/><ellipse cx="35.009" cy="53.01" rx="35.009" ry="53.01" transform="translate(115.998 99.917) rotate(-20.3)" fill="#fff"/><path d="M250.8,217.08c-2.845,10.272-8.8,18.114-17.354,21.275-7.9,2.927-16.714,1.377-24.985-3.567" transform="translate(-51.586 -54.921)" fill="none" stroke="#1b3c87" stroke-linecap="round" stroke-linejoin="round" stroke-width="3.19"/><path d="M203.4,189.08c.753,2.258,1.023,11.394,0,15.856" transform="translate(-48.076 -47.992)" fill="none" stroke="#1b3c87" stroke-linecap="round" stroke-linejoin="round" stroke-width="3.19"/><ellipse cx="1.746" cy="4.35" rx="1.746" ry="4.35" transform="translate(139.256 141.738) rotate(-16.26)" fill="#1b3c87"/><path d="M222.88,219.425c1.731-1.174,4.944-5.9,5.042-10.475" transform="translate(-55.154 -52.909)" fill="none" stroke="#1b3c87" stroke-linecap="round" stroke-linejoin="round" stroke-width="3.19"/><path d="M192.432,144.965c4.515,10.536,31.607,23.329,59.451,21.824,0-3.763-9.031-36.875-15.8-42.143s-37.627-21.824-51.173-8.278S192.432,144.965,192.432,144.965Z" transform="translate(-44.634 -28.711)" fill="#ecc953"/><path d="M191.8,141.418c0,4.515-12.041,40.472-17.692,46.2-6.389-12.334-7.894-46.951-.369-55.23C180.962,124.471,191.8,141.418,191.8,141.418Z" transform="translate(-41.742 -33.442)" fill="#ecc953"/><path d="M192.66,153.41c5.6,8.669,25.12,18.2,47.094,19.92" transform="translate(-47.676 -39.166)" fill="none" stroke="#1b3c87" stroke-linecap="round" stroke-linejoin="round" stroke-width="3.19"/><path d="M186.116,158.18c-2.9,8.91-7.044,20-10.536,26.881" transform="translate(-43.45 -40.346)" fill="none" stroke="#1b3c87" stroke-linecap="round" stroke-linejoin="round" stroke-width="3.19"/><circle cx="9.031" cy="9.031" r="9.031" transform="translate(180.91 127.542)" fill="#fff"/><path d="M239.46,170.089a9.031,9.031,0,1,1,8.549,14.863" transform="translate(-59.257 -42.547)" fill="none" stroke="#1b3c87" stroke-linecap="round" stroke-linejoin="round" stroke-width="3.19"/><path d="M373.652,256.65c9.783,3.815,18.272,8.09,23.329,11.5,1.452,9.9-13.2,50.421-21.643,54.379-2.22-.2-6.239-1.505-11.288-3.665" transform="translate(-90.087 -64.713)" fill="none" stroke="#1b3c87" stroke-linecap="round" stroke-linejoin="round" stroke-width="3.19"/><path d="M323.034,303.671c-20.552-13.132-40.909-32.435-32.8-49.668,5.328-11.288,21.884-11.928,39.592-8.2" transform="translate(-71.369 -61.524)" fill="none" stroke="#1b3c87" stroke-linecap="round" stroke-linejoin="round" stroke-width="3.19"/></g></g><g transform="translate(107.474 135.623) rotate(-30)"><path d="M75.018,20.692H4.83A4.83,4.83,0,0,1,0,15.863V4.83A4.83,4.83,0,0,1,4.83,0H75.018a4.83,4.83,0,0,1,4.83,4.83V15.863A4.83,4.83,0,0,1,75.018,20.692Zm0,0" transform="translate(0 7.123)" fill="#9fecfd"/><path d="M5.3,0H0A4.83,4.83,0,0,1,4.83,4.83V15.863A4.83,4.83,0,0,1,0,20.692H5.3a4.83,4.83,0,0,0,4.83-4.83V4.83A4.83,4.83,0,0,0,5.3,0Zm0,0" transform="translate(69.717 7.123)" fill="#77e5fd"/><g transform="matrix(0.87, 0.5, -0.5, 0.87, -24.47, -172.57)" filter="url(#a)"><path d="M56.041,34.939H41.3a4.328,4.328,0,0,1-3.178-1.391l-1.662-1.8a4.328,4.328,0,0,0-3.178-1.39h-.447a4.328,4.328,0,0,0-3.178,1.39L28,33.548a4.328,4.328,0,0,1-3.178,1.391H9.664A9.665,9.665,0,0,1,0,25.273V9.666A9.665,9.665,0,0,1,9.664,0H56.041A9.665,9.665,0,0,1,65.7,9.666V25.272a9.665,9.665,0,0,1-9.664,9.667Zm0,0" transform="translate(113.6 133.68) rotate(-30)" fill="#4172cc"/></g><path d="M5.3,0H0A9.665,9.665,0,0,1,9.664,9.666V25.272A9.665,9.665,0,0,1,0,34.939H5.3a9.665,9.665,0,0,0,9.664-9.667V9.666A9.665,9.665,0,0,0,5.3,0Zm0,0" transform="translate(57.811 0)" fill="#3567c3"/><path d="M26.329,0,0,26.329A9.67,9.67,0,0,0,7.478,34.7L41.19,0Zm0,0" transform="translate(7.13 0)" fill="#2d56a1"/><path d="M0,28.11H12.107a9.665,9.665,0,0,0,9.664-9.667V2.837A9.654,9.654,0,0,0,21.347,0Zm0,0" transform="translate(51.005 6.829)" fill="#2d56a1"/><path d="M14.542,0,9.664,6.423V18.443A9.665,9.665,0,0,1,0,28.11H5.3a9.665,9.665,0,0,0,9.664-9.667V2.837A9.653,9.653,0,0,0,14.542,0Zm0,0" transform="translate(57.811 6.829)" fill="#24447f"/></g></g></svg>
