<svg xmlns="http://www.w3.org/2000/svg" viewBox="0 0 252.16 43.742"><g transform="translate(-178.84 -52.408)"><g transform="translate(177.84 45.75)"><path d="M1,11V32.7c0,5.447,6.28,9.863,14.027,9.863H31.185c3.2,0,6.119-1.264,7.546-3.274l1.852-2.643a3.441,3.441,0,0,1,4.993,0l1.852,2.584c1.4,2.033,4.332,3.327,7.546,3.334H71.133c7.747,0,14.027-4.416,14.027-9.863V11Z" transform="translate(0 7.839)" fill="#fff"/><path d="M59.467,5H12.586A11.721,11.721,0,0,0,1.1,14.379l69.853,0A11.72,11.72,0,0,0,59.467,5Z" transform="translate(7.053 1.658)" fill="#fff"/></g><text transform="translate(272 62)" fill="#fff" font-size="28" font-family="Montserrat-Bold, Montserrat" font-weight="700"><tspan x="0" y="27">VR History</tspan></text></g></svg>
