<?xml version="1.0" standalone="no"?>
<!DOCTYPE svg PUBLIC "-//W3C//DTD SVG 20010904//EN"
 "http://www.w3.org/TR/2001/REC-SVG-20010904/DTD/svg10.dtd">
<svg version="1.0" xmlns="http://www.w3.org/2000/svg"
 width="641.000000pt" height="436.000000pt" viewBox="0 0 641.000000 436.000000"
 preserveAspectRatio="xMidYMid meet">

<g transform="translate(0.000000,436.000000) scale(0.100000,-0.100000)"
fill="#000000" stroke="none">
<path d="M0 2180 l0 -2180 3200 0 3200 0 0 2180 0 2180 -3200 0 -3200 0 0
-2180z m5580 260 l0 -810 -312 -2 -313 -3 -3 -153 c-1 -91 -6 -152 -12 -150
-10 3 -88 68 -264 220 l-101 87 -1961 1 c-1780 0 -1962 1 -1968 16 -3 9 -6
370 -6 804 0 621 3 789 13 793 6 3 1118 6 2470 6 l2457 1 0 -810z"/>
<path d="M2026 2979 c-116 -19 -243 -115 -295 -222 -81 -166 -81 -440 0 -599
58 -114 155 -189 271 -208 43 -7 124 -34 199 -66 69 -29 155 -65 191 -78 l65
-25 36 82 c20 45 32 85 28 90 -4 4 -46 18 -93 31 -46 13 -93 28 -102 33 -16 9
-15 12 10 28 105 69 167 228 167 430 0 164 -44 301 -128 394 -45 49 -134 96
-209 110 -66 12 -70 12 -140 0z m143 -208 c89 -64 126 -300 75 -481 -25 -87
-73 -144 -131 -156 -48 -9 -82 3 -124 44 -104 105 -111 425 -11 561 46 63 128
76 191 32z"/>
<path d="M2650 2628 c0 -371 7 -433 54 -525 29 -58 82 -108 145 -137 38 -17
66 -20 161 -21 106 0 119 2 172 28 71 35 137 107 169 184 23 57 24 63 27 436
l3 378 -113 -3 -113 -3 -5 -370 c-5 -402 -7 -411 -64 -449 -32 -21 -100 -21
-136 0 -70 42 -80 107 -80 506 l0 318 -110 0 -110 0 0 -342z"/>
<path d="M3560 2463 l0 -508 115 3 115 3 -2 502 -3 502 -112 3 -113 3 0 -508z"/>
<path d="M3950 2875 l0 -95 174 0 c105 0 177 -4 181 -10 3 -5 -9 -36 -28 -67
-18 -32 -109 -185 -200 -341 -166 -280 -167 -282 -167 -342 l0 -60 345 0 345
0 0 95 0 95 -195 0 c-107 0 -195 2 -195 6 0 3 25 49 57 102 158 271 196 336
259 442 68 114 68 115 69 190 l0 75 -322 3 -323 2 0 -95z"/>
</g>
</svg>
