<svg xmlns="http://www.w3.org/2000/svg" xmlns:xlink="http://www.w3.org/1999/xlink" viewBox="0 0 84.16 43.742"><defs><linearGradient id="a" x1="1" y1="0.289" x2="0.074" y2="1.221" gradientUnits="objectBoundingBox"><stop offset="0" stop-color="#2d8ceb"/><stop offset="1" stop-color="#5aacff"/></linearGradient></defs><g transform="translate(-1 -6.658)"><path d="M1,11V32.7c0,5.447,6.28,9.863,14.027,9.863H31.185c3.2,0,6.119-1.264,7.546-3.274l1.852-2.643a3.441,3.441,0,0,1,4.993,0l1.852,2.584c1.4,2.033,4.332,3.327,7.546,3.334H71.133c7.747,0,14.027-4.416,14.027-9.863V11Z" transform="translate(0 7.839)" fill="url(#a)"/><path d="M59.467,5H12.586A11.721,11.721,0,0,0,1.1,14.379l69.853,0A11.72,11.72,0,0,0,59.467,5Z" transform="translate(5.791 1.658)" fill="url(#a)"/></g></svg>
