<svg xmlns="http://www.w3.org/2000/svg" viewBox="0 0 79.367 75"><g transform="translate(-50 -80.26)"><circle cx="37.5" cy="37.5" r="37.5" transform="translate(52.183 80.26)" fill="#2a1540"/><path d="M265.047,606.119l-.129,17.917,1.547,1.547a191.7,191.7,0,0,0,25.394,1.289c15.21-.129,19.077-1.289,19.077-1.289l.9-2.32-.645-18.175-11.472-1.547L274.2,603.8l-8.379,1.676Z" transform="translate(-199.411 -485.526)" fill="#fcd290"/><path d="M908.587,536.277c.387,0,13.277-5.156,15.984-11.343-.516,10.828-1.16,12.117-1.16,12.117s-2.191,8.121-14.824,10.441A29.469,29.469,0,0,1,908.587,536.277Z" transform="translate(-796.16 -412.59)" fill="#fcac6f"/><path d="M74.153,533.458l-.258,11.6s-13.148-4.641-14.179-10.7a39.5,39.5,0,0,1-.258-11.214S61.134,530.88,74.153,533.458Z" transform="translate(-8.518 -410.931)" fill="#fcac6f"/><path d="M71.216,302.173s7.218-9.281,35.963-8.508,34.932,8.636,34.932,8.636,6.961-5.929.387-11.988-22.944-9.152-37.639-8.765-33.772,3.867-36.608,13.792C68.252,295.341,67.092,298.563,71.216,302.173Z" transform="translate(-16.795 -186.735)" fill="#fc523a"/><path d="M293.578,665.607c-17.67,0-25.1-1.976-25.423-2.065a1.635,1.635,0,0,1-1.2-1.6l.257-15.751a1.634,1.634,0,1,1,3.269.054l-.236,14.416c2.943.576,11.322,1.865,26.643,1.659a1.634,1.634,0,1,1,.044,3.268Q295.2,665.608,293.578,665.607Z" transform="translate(-201.299 -523.604)" fill="#fff" opacity="0.62"/><g transform="translate(50 93.917)"><path d="M304.779,588.559h-.034a1.734,1.734,0,0,1-1.7-1.768l.363-19.053c-13.563.215-27.291.071-40.833-.427a1.735,1.735,0,1,1,.128-3.468c14.079.518,28.359.651,42.442.4a1.766,1.766,0,0,1,1.259.508,1.734,1.734,0,0,1,.507,1.259l-.4,20.851A1.735,1.735,0,0,1,304.779,588.559Z" transform="translate(-245.687 -542.608)" fill="#fc523a"/><path d="M989.114,568.083a1.735,1.735,0,0,1-.835-3.257,14.606,14.606,0,0,0,7.338-13.27,1.735,1.735,0,0,1,3.464-.207,17.944,17.944,0,0,1-9.136,16.521A1.732,1.732,0,0,1,989.114,568.083Z" transform="translate(-919.744 -529.502)" fill="#fc523a"/><path d="M587.144,305.777a1.736,1.736,0,0,1-1.681-2.168,6.221,6.221,0,0,0-1.477-5.255,16.777,16.777,0,0,0-5.264-3.892A53.268,53.268,0,0,0,548.23,288.7a1.735,1.735,0,0,1-.386-3.448,56.778,56.778,0,0,1,32.5,6.147,19.887,19.887,0,0,1,6.333,4.768,9.593,9.593,0,0,1,2.148,8.314A1.737,1.737,0,0,1,587.144,305.777Z" transform="translate(-510.493 -283.797)" fill="#fcd290"/><path d="M89.622,269.541c-.013,0-.026,0-.039,0s-.025,0-.039,0C67.37,269.541,50,276.816,50,286.1V297.85a.9.9,0,0,0,.094.4c.277,4.768,5.521,9.243,14.179,12.324v3.176a3.226,3.226,0,0,0,2.8,3.167,185.134,185.134,0,0,0,42.918,0h0a3.225,3.225,0,0,0,2.792-3.166v-2.473c9.912-3.08,15.993-7.883,16.291-13.028a.906.906,0,0,0,.094-.4V286.1C129.167,276.816,111.8,269.541,89.622,269.541ZM51.906,297.85a.908.908,0,0,0-.078-.367v-6.277c2.256,3.032,6.534,5.692,12.445,7.707v9.7C56.666,305.753,51.906,301.742,51.906,297.85Zm37.639-14.733c.013,0,.026,0,.039,0s.025,0,.039,0c14.915,0,28.3,3.454,34.455,8.841-2.519,2.2-6.4,4.184-11.3,5.707v-3.948a3.226,3.226,0,0,0-2.8-3.167,185.141,185.141,0,0,0-42.922,0,3.225,3.225,0,0,0-2.792,3.166v3.241a29.048,29.048,0,0,1-9.181-5C61.185,286.642,74.8,283.116,89.545,283.116ZM109.771,315.1a183.287,183.287,0,0,1-42.487,0,1.428,1.428,0,0,1-1.184-1.351V297.208a1.427,1.427,0,0,1,1.18-1.351,183.293,183.293,0,0,1,42.49,0,1.429,1.429,0,0,1,1.184,1.352v16.538A1.409,1.409,0,0,1,109.771,315.1Zm1.183-20.767a3.067,3.067,0,0,0-.968-.289,185.17,185.17,0,0,0-42.922,0,3.057,3.057,0,0,0-.964.287v-.613a1.427,1.427,0,0,1,1.18-1.351,183.3,183.3,0,0,1,42.49,0,1.428,1.428,0,0,1,1.184,1.352Zm16.385,3.153a.91.91,0,0,0-.077.366c0,4.241-5.652,8.622-14.479,11.5v-9.762c7.008-2.077,12.04-5,14.557-8.379Zm-1.965-6.817c-6.449-5.712-20.355-9.378-35.752-9.378-.013,0-.026,0-.039,0s-.025,0-.039,0c-15.456,0-29.3,3.658-35.752,9.377a7.022,7.022,0,0,1-1.964-4.563c0-7.986,17.272-14.733,37.717-14.733.013,0,.026,0,.039,0s.025,0,.039,0c20.444,0,37.717,6.747,37.717,14.733A7.023,7.023,0,0,1,125.374,290.666Z" transform="translate(-50 -269.541)" fill="#2a1540"/><path d="M829.349,647.15a.911.911,0,0,0,.525-.166c.645-.453,1.286-.891,1.906-1.3a.914.914,0,0,0-1.01-1.524c-.633.42-1.288.867-1.946,1.329a.914.914,0,0,0,.526,1.662Z" transform="translate(-772.269 -616.989)" fill="#2a1540"/><path d="M831.777,849.121c-.62-.411-1.261-.848-1.906-1.3a.914.914,0,1,0-1.05,1.5c.658.462,1.313.909,1.946,1.329a.914.914,0,1,0,1.01-1.524Z" transform="translate(-772.267 -805.942)" fill="#2a1540"/><path d="M287.905,645.683c.622.412,1.263.85,1.9,1.3a.914.914,0,0,0,1.051-1.5c-.656-.461-1.311-.908-1.946-1.329a.914.914,0,1,0-1.01,1.524Z" transform="translate(-270.36 -616.989)" fill="#2a1540"/><path d="M290.86,849.319a.914.914,0,1,0-1.051-1.5c-.642.451-1.283.889-1.9,1.3a.914.914,0,1,0,1.01,1.524C289.549,850.227,290.2,849.78,290.86,849.319Z" transform="translate(-270.359 -805.946)" fill="#2a1540"/><path d="M427.216,688.285a.262.262,0,0,0,.014.027.288.288,0,0,0,.046.086.59.59,0,0,0,.307.3.326.326,0,0,0,.041.025h0a.629.629,0,0,0,.287.047.693.693,0,0,0,.217-.039.273.273,0,0,0,.063-.015.692.692,0,0,0,.429-.551L433.6,676.4a.732.732,0,0,0,0-.557.733.733,0,0,0-.941-.4.65.65,0,0,0-.372.379l-4.37,10.377-4.351-10.376a.709.709,0,0,0-.41-.388.687.687,0,0,0-.537.02.721.721,0,0,0-.385.391.731.731,0,0,0,0,.558Z" transform="translate(-395.318 -646.109)" fill="#2a1540"/><path d="M622.311,687.906a.727.727,0,0,0,.734-.717v-4.828h2.8a.594.594,0,0,0,.064.024.25.25,0,0,0,.044.01,3.858,3.858,0,0,1,1.369.594,2.043,2.043,0,0,1,.939,1.732,4.867,4.867,0,0,0,.379,2.24,1.305,1.305,0,0,0,1.074.741h.037a1.378,1.378,0,0,0,.221-.018.28.28,0,0,0,.1-.019.779.779,0,0,0,.453-.939.75.75,0,0,0-.623-.473.72.72,0,0,1-.056-.129,4.636,4.636,0,0,1-.152-1.4,3.5,3.5,0,0,0-1.63-2.963,3.957,3.957,0,0,0-2.108-7.295h-3.705a.73.73,0,0,0-.657.716V687.19A.726.726,0,0,0,622.311,687.906Zm.734-6.977v-5.014h2.912a2.507,2.507,0,0,1,.074,5.014h-2.986Z" transform="translate(-580.354 -645.249)" fill="#2a1540"/></g></g></svg>
