<?xml version="1.0" encoding="UTF-8"?>
<svg xmlns="http://www.w3.org/2000/svg" xmlns:xlink="http://www.w3.org/1999/xlink" width="145px" height="102px" viewBox="0 0 144 102" version="1.1">
<g id="surface1">
<path style=" stroke:none;fill-rule:nonzero;fill:rgb(51.764706%,20.784314%,87.058824%);fill-opacity:1;" d="M 81.355469 93.941406 C 81.355469 98.296875 77.84375 101.828125 73.515625 101.828125 C 69.1875 101.828125 65.675781 98.296875 65.675781 93.941406 C 65.675781 89.585938 69.1875 86.058594 73.515625 86.058594 C 77.84375 86.058594 81.355469 89.585938 81.355469 93.941406 Z M 81.355469 93.941406 "/>
<path style=" stroke:none;fill-rule:nonzero;fill:rgb(94.901961%,94.901961%,94.901961%);fill-opacity:1;" d="M 120.347656 101.386719 C 124.730469 100.0625 129.394531 98.679688 132.871094 95.53125 C 135.980469 92.714844 138.078125 88.417969 136.789062 84.195312 C 135.503906 79.984375 131.65625 77.175781 127.683594 75.777344 C 125.429688 74.984375 123.070312 74.546875 120.714844 74.199219 C 118.152344 73.824219 115.578125 73.519531 113.007812 73.222656 C 102.589844 72.023438 92.136719 71.292969 81.644531 71.027344 C 76.464844 70.894531 71.289062 70.898438 66.109375 70.972656 C 61.484375 71.042969 56.613281 71.039062 52.324219 69.0625 C 48.988281 67.523438 45.957031 64.726562 45.03125 61.050781 C 43.957031 56.804688 45.9375 52.484375 48.777344 49.410156 C 50.273438 47.792969 52.019531 46.429688 53.824219 45.175781 C 55.785156 43.816406 57.808594 42.550781 59.878906 41.371094 C 63.957031 39.046875 68.21875 37.074219 72.621094 35.460938 C 74.792969 34.667969 76.996094 33.980469 79.21875 33.347656 C 81.097656 32.816406 82.980469 32.28125 84.796875 31.554688 C 88.304688 30.148438 91.640625 27.765625 92.53125 23.859375 C 93.375 20.160156 91.949219 16.140625 89.453125 13.390625 C 86.5625 10.207031 82.203125 8.8125 78.023438 8.589844 C 73.332031 8.335938 68.75 9.515625 64.339844 11.015625 C 59.636719 12.613281 55.035156 14.453125 50.234375 15.746094 C 45.472656 17.03125 40.617188 17.9375 35.714844 18.460938 C 33.316406 18.71875 30.84375 19.011719 28.429688 18.8125 C 26.40625 18.648438 24.394531 18.050781 22.902344 16.605469 C 21.625 15.367188 20.863281 13.664062 21.125 11.867188 C 21.171875 11.542969 21.664062 11.679688 21.617188 12.003906 C 21.296875 14.191406 22.777344 16.207031 24.597656 17.238281 C 26.699219 18.429688 29.261719 18.433594 31.605469 18.296875 C 36.683594 17.988281 41.730469 17.253906 46.6875 16.101562 C 51.5625 14.984375 56.257812 13.382812 60.953125 11.671875 C 65.410156 10.050781 69.964844 8.464844 74.730469 8.113281 C 78.859375 7.808594 83.207031 8.414062 86.808594 10.585938 C 89.96875 12.496094 92.296875 15.679688 93.039062 19.332031 C 93.761719 22.902344 92.757812 26.496094 90.070312 28.984375 C 87.292969 31.566406 83.476562 32.667969 79.921875 33.683594 C 75.414062 34.972656 71.003906 36.476562 66.734375 38.433594 C 62.40625 40.410156 58.257812 42.757812 54.328125 45.449219 C 50.539062 48.054688 46.796875 51.335938 45.597656 55.984375 C 45.039062 58.148438 45.140625 60.445312 46.078125 62.492188 C 46.90625 64.308594 48.277344 65.839844 49.871094 67.019531 C 53.675781 69.835938 58.46875 70.414062 63.0625 70.472656 C 68.222656 70.535156 73.382812 70.363281 78.546875 70.445312 C 89.066406 70.621094 99.5625 71.265625 110.042969 72.378906 C 112.667969 72.660156 115.289062 72.96875 117.90625 73.304688 C 120.261719 73.609375 122.625 73.914062 124.941406 74.453125 C 129.058594 75.414062 133.066406 77.265625 135.625 80.777344 C 136.761719 82.296875 137.464844 84.101562 137.660156 85.996094 C 137.839844 87.96875 137.359375 89.949219 136.472656 91.707031 C 134.507812 95.597656 130.824219 98.070312 126.914062 99.695312 C 124.824219 100.566406 122.648438 101.226562 120.480469 101.882812 C 120.167969 101.976562 120.03125 101.480469 120.347656 101.386719 Z M 120.347656 101.386719 "/>
<path style=" stroke:none;fill-rule:nonzero;fill:rgb(94.901961%,94.901961%,94.901961%);fill-opacity:1;" d="M 25.542969 11.914062 C 25.542969 14.1875 23.710938 16.027344 21.453125 16.027344 C 19.195312 16.027344 17.363281 14.1875 17.363281 11.914062 C 17.363281 9.640625 19.195312 7.800781 21.453125 7.800781 C 23.710938 7.800781 25.542969 9.640625 25.542969 11.914062 Z M 25.542969 11.914062 "/>
<path style=" stroke:none;fill-rule:nonzero;fill:rgb(94.901961%,94.901961%,94.901961%);fill-opacity:1;" d="M 53.917969 19.714844 C 53.917969 21.988281 52.085938 23.828125 49.828125 23.828125 C 47.570312 23.828125 45.738281 21.988281 45.738281 19.714844 C 45.738281 17.441406 47.570312 15.601562 49.828125 15.601562 C 52.085938 15.601562 53.917969 17.441406 53.917969 19.714844 Z M 53.917969 19.714844 "/>
<path style=" stroke:none;fill-rule:nonzero;fill:rgb(94.901961%,94.901961%,94.901961%);fill-opacity:1;" d="M 77.945312 4.113281 C 77.945312 6.386719 76.113281 8.226562 73.855469 8.226562 C 71.597656 8.226562 69.765625 6.386719 69.765625 4.113281 C 69.765625 1.839844 71.597656 0 73.855469 0 C 76.113281 0 77.945312 1.839844 77.945312 4.113281 Z M 77.945312 4.113281 "/>
<path style=" stroke:none;fill-rule:nonzero;fill:rgb(94.901961%,94.901961%,94.901961%);fill-opacity:1;" d="M 92.941406 21.601562 C 92.941406 23.871094 91.113281 25.714844 88.851562 25.714844 C 86.59375 25.714844 84.761719 23.871094 84.761719 21.601562 C 84.761719 19.328125 86.59375 17.484375 88.851562 17.484375 C 91.113281 17.484375 92.941406 19.328125 92.941406 21.601562 Z M 92.941406 21.601562 "/>
<path style=" stroke:none;fill-rule:nonzero;fill:rgb(94.901961%,94.901961%,94.901961%);fill-opacity:1;" d="M 72.664062 41.828125 C 72.664062 44.101562 70.832031 45.941406 68.574219 45.941406 C 66.316406 45.941406 64.484375 44.101562 64.484375 41.828125 C 64.484375 39.554688 66.316406 37.714844 68.574219 37.714844 C 70.832031 37.714844 72.664062 39.554688 72.664062 41.828125 Z M 72.664062 41.828125 "/>
<path style=" stroke:none;fill-rule:nonzero;fill:rgb(94.901961%,94.901961%,94.901961%);fill-opacity:1;" d="M 46.929688 51.601562 C 46.929688 53.871094 45.101562 55.714844 42.839844 55.714844 C 40.582031 55.714844 38.75 53.871094 38.75 51.601562 C 38.75 49.328125 40.582031 47.484375 42.839844 47.484375 C 45.101562 47.484375 46.929688 49.328125 46.929688 51.601562 Z M 46.929688 51.601562 "/>
<path style=" stroke:none;fill-rule:nonzero;fill:rgb(94.901961%,94.901961%,94.901961%);fill-opacity:1;" d="M 74.199219 66.859375 C 74.199219 69.128906 72.367188 70.972656 70.105469 70.972656 C 67.847656 70.972656 66.015625 69.128906 66.015625 66.859375 C 66.015625 64.585938 67.847656 62.742188 70.105469 62.742188 C 72.367188 62.742188 74.199219 64.585938 74.199219 66.859375 Z M 74.199219 66.859375 "/>
<path style=" stroke:none;fill-rule:nonzero;fill:rgb(94.901961%,94.901961%,94.901961%);fill-opacity:1;" d="M 103.507812 75.429688 C 103.507812 77.699219 101.675781 79.542969 99.417969 79.542969 C 97.160156 79.542969 95.328125 77.699219 95.328125 75.429688 C 95.328125 73.15625 97.160156 71.3125 99.417969 71.3125 C 101.675781 71.3125 103.507812 73.15625 103.507812 75.429688 Z M 103.507812 75.429688 "/>
<path style=" stroke:none;fill-rule:nonzero;fill:rgb(94.901961%,94.901961%,94.901961%);fill-opacity:1;" d="M 137.761719 73.542969 C 137.761719 75.816406 135.929688 77.65625 133.671875 77.65625 C 131.414062 77.65625 129.582031 75.816406 129.582031 73.542969 C 129.582031 71.269531 131.414062 69.429688 133.671875 69.429688 C 135.929688 69.429688 137.761719 71.269531 137.761719 73.542969 Z M 137.761719 73.542969 "/>
<path style=" stroke:none;fill-rule:nonzero;fill:rgb(51.764706%,20.784314%,87.058824%);fill-opacity:1;" d="M 72.675781 11.65625 C 60.425781 11.746094 50.394531 21.761719 50.21875 34.082031 C 50.21875 34.195312 50.214844 34.996094 50.214844 36.042969 C 50.21875 39.238281 52.792969 41.828125 55.96875 41.828125 C 59.148438 41.828125 61.722656 39.234375 61.71875 36.035156 C 61.71875 35.324219 61.71875 34.828125 61.71875 34.800781 C 61.71875 29.539062 65.429688 25.015625 70.566406 24.023438 C 75.703125 23.03125 80.816406 25.84375 82.753906 30.730469 C 84.695312 35.617188 82.914062 41.199219 78.507812 44.035156 L 78.511719 44.039062 C 78.511719 44.039062 70.324219 49.339844 67.832031 56.609375 C 67.394531 58.101562 67.171875 59.644531 67.171875 61.199219 C 67.171875 61.839844 67.210938 67.425781 67.28125 71.960938 C 67.335938 75.21875 69.972656 77.828125 73.210938 77.828125 C 74.789062 77.828125 76.304688 77.195312 77.417969 76.070312 C 78.53125 74.941406 79.152344 73.414062 79.140625 71.828125 C 79.117188 67.671875 79.101562 62.835938 79.101562 62.484375 C 79.101562 58.019531 83.382812 53.570312 86.902344 50.671875 C 90.949219 47.332031 93.867188 42.777344 95.035156 37.644531 C 95.292969 36.585938 95.4375 35.503906 95.460938 34.414062 C 95.460938 28.351562 93.054688 22.535156 88.777344 18.265625 C 84.5 13.992188 78.703125 11.613281 72.675781 11.65625 Z M 72.675781 11.65625 "/>
<path style=" stroke:none;fill-rule:nonzero;fill:rgb(24.705882%,23.921569%,33.72549%);fill-opacity:1;" d="M 143.742188 102.042969 L 0.203125 102.042969 C 0.0898438 102.042969 0 101.953125 0 101.839844 C 0 101.726562 0.0898438 101.636719 0.203125 101.636719 L 143.742188 101.636719 C 143.851562 101.636719 143.945312 101.726562 143.945312 101.839844 C 143.945312 101.953125 143.851562 102.042969 143.742188 102.042969 Z M 143.742188 102.042969 "/>
<path style=" stroke:none;fill-rule:nonzero;fill:rgb(18.431373%,18.039216%,25.490196%);fill-opacity:1;" d="M 112.207031 41.65625 C 112.207031 44.496094 109.917969 46.800781 107.097656 46.800781 C 104.273438 46.800781 101.984375 44.496094 101.984375 41.65625 C 101.984375 38.816406 104.273438 36.515625 107.097656 36.515625 C 109.917969 36.515625 112.207031 38.816406 112.207031 41.65625 Z M 112.207031 41.65625 "/>
<path style=" stroke:none;fill-rule:nonzero;fill:rgb(62.745098%,38.039216%,41.568627%);fill-opacity:1;" d="M 97.648438 99.792969 L 95.558594 99.792969 L 94.566406 91.6875 L 97.648438 91.6875 Z M 97.648438 99.792969 "/>
<path style=" stroke:none;fill-rule:nonzero;fill:rgb(18.431373%,18.039216%,25.490196%);fill-opacity:1;" d="M 94.066406 99.191406 L 98.097656 99.191406 L 98.097656 101.746094 L 91.53125 101.746094 C 91.53125 100.335938 92.667969 99.191406 94.066406 99.191406 Z M 94.066406 99.191406 "/>
<path style=" stroke:none;fill-rule:nonzero;fill:rgb(62.745098%,38.039216%,41.568627%);fill-opacity:1;" d="M 113.839844 99.792969 L 111.75 99.792969 L 110.753906 91.6875 L 113.839844 91.6875 Z M 113.839844 99.792969 "/>
<path style=" stroke:none;fill-rule:nonzero;fill:rgb(18.431373%,18.039216%,25.490196%);fill-opacity:1;" d="M 110.257812 99.191406 L 114.285156 99.191406 L 114.285156 101.746094 L 107.71875 101.746094 C 107.71875 100.335938 108.855469 99.191406 110.257812 99.191406 Z M 110.257812 99.191406 "/>
<path style=" stroke:none;fill-rule:nonzero;fill:rgb(62.745098%,38.039216%,41.568627%);fill-opacity:1;" d="M 110.503906 42.621094 C 110.503906 44.945312 108.632812 46.828125 106.320312 46.828125 C 104.007812 46.828125 102.132812 44.945312 102.132812 42.621094 C 102.132812 40.292969 104.007812 38.410156 106.320312 38.410156 C 108.632812 38.410156 110.503906 40.292969 110.503906 42.621094 Z M 110.503906 42.621094 "/>
<path style=" stroke:none;fill-rule:nonzero;fill:rgb(18.431373%,18.039216%,25.490196%);fill-opacity:1;" d="M 108.8125 60.410156 L 110.6875 56.085938 C 111.621094 54.003906 111.144531 51.554688 109.503906 49.980469 C 109.339844 49.816406 109.164062 49.664062 108.980469 49.523438 C 108.054688 48.796875 106.917969 48.398438 105.742188 48.398438 C 104.953125 48.398438 104.175781 48.574219 103.460938 48.90625 C 103.398438 48.933594 103.339844 48.964844 103.277344 48.992188 C 103.160156 49.050781 103.042969 49.113281 102.929688 49.175781 C 101.445312 50.035156 100.449219 51.554688 100.257812 53.269531 L 99.429688 60.234375 C 99.222656 60.78125 91.804688 80.53125 94.398438 95.609375 C 94.457031 95.9375 94.71875 96.195312 95.050781 96.238281 L 97.679688 96.597656 C 98.078125 96.652344 98.449219 96.390625 98.535156 95.992188 L 102.945312 74.835938 C 103 74.566406 103.234375 74.367188 103.507812 74.359375 C 103.785156 74.351562 104.03125 74.53125 104.105469 74.796875 L 110.335938 97.046875 C 110.429688 97.378906 110.730469 97.605469 111.074219 97.605469 C 111.121094 97.605469 111.171875 97.601562 111.21875 97.59375 L 114.433594 96.972656 C 114.820312 96.898438 115.089844 96.542969 115.050781 96.148438 C 114.578125 90.851562 112.070312 64.324219 108.8125 60.410156 Z M 108.8125 60.410156 "/>
<path style=" stroke:none;fill-rule:nonzero;fill:rgb(62.745098%,38.039216%,41.568627%);fill-opacity:1;" d="M 90.054688 46.125 C 89.996094 46.628906 90.160156 47.136719 90.511719 47.507812 C 90.859375 47.878906 91.351562 48.074219 91.859375 48.042969 L 94.199219 53.699219 L 95.96875 51.058594 L 93.476562 46.09375 C 93.363281 45.222656 92.625 44.570312 91.75 44.578125 C 90.878906 44.585938 90.148438 45.25 90.054688 46.125 Z M 90.054688 46.125 "/>
<path style=" stroke:none;fill-rule:nonzero;fill:rgb(62.745098%,38.039216%,41.568627%);fill-opacity:1;" d="M 106.085938 66.109375 C 106.589844 66.046875 107.042969 65.765625 107.320312 65.335938 C 107.597656 64.910156 107.671875 64.382812 107.523438 63.894531 L 112.445312 60.289062 L 109.480469 59.171875 L 105.261719 62.765625 C 104.445312 63.078125 103.988281 63.953125 104.199219 64.804688 C 104.410156 65.65625 105.222656 66.21875 106.085938 66.109375 Z M 106.085938 66.109375 "/>
<path style=" stroke:none;fill-rule:nonzero;fill:rgb(18.431373%,18.039216%,25.490196%);fill-opacity:1;" d="M 98.0625 57.46875 C 97.875 57.46875 97.6875 57.449219 97.5 57.414062 C 96.59375 57.238281 95.828125 56.621094 95.464844 55.765625 L 92.1875 51.746094 C 92.046875 51.574219 91.988281 51.347656 92.023438 51.128906 C 92.058594 50.910156 92.1875 50.714844 92.375 50.597656 L 94.707031 49.148438 C 94.882812 49.039062 95.09375 49.003906 95.289062 49.054688 C 95.488281 49.101562 95.660156 49.226562 95.765625 49.402344 L 98.078125 53.230469 L 102.5 49.941406 C 103.230469 49.558594 104.128906 49.769531 104.613281 50.4375 C 105.09375 51.109375 105.015625 52.03125 104.429688 52.609375 L 100.011719 56.664062 C 99.496094 57.179688 98.792969 57.46875 98.0625 57.46875 Z M 98.0625 57.46875 "/>
<path style=" stroke:none;fill-rule:nonzero;fill:rgb(18.431373%,18.039216%,25.490196%);fill-opacity:1;" d="M 110.019531 63.515625 C 110.011719 63.515625 110.003906 63.515625 110 63.515625 C 109.78125 63.511719 109.578125 63.414062 109.4375 63.246094 L 107.363281 60.8125 C 107.21875 60.648438 107.15625 60.425781 107.183594 60.207031 C 107.214844 59.988281 107.335938 59.792969 107.519531 59.671875 L 111.402344 57.066406 L 107.882812 52.8125 C 107.460938 52.105469 107.621094 51.191406 108.257812 50.664062 C 108.890625 50.140625 109.8125 50.167969 110.421875 50.726562 L 114.695312 54.925781 C 115.378906 55.554688 115.710938 56.480469 115.585938 57.402344 C 115.460938 58.324219 114.894531 59.125 114.070312 59.542969 L 110.574219 63.273438 C 110.429688 63.429688 110.230469 63.515625 110.019531 63.515625 Z M 110.019531 63.515625 "/>
<path style=" stroke:none;fill-rule:nonzero;fill:rgb(90.196078%,90.196078%,90.196078%);fill-opacity:1;" d="M 105.253906 54.550781 C 105.222656 54.550781 105.1875 54.546875 105.15625 54.542969 C 104.863281 54.507812 104.613281 54.300781 104.523438 54.019531 L 102.964844 49.214844 C 102.886719 48.960938 103 48.6875 103.238281 48.574219 L 103.289062 48.550781 C 103.332031 48.53125 103.378906 48.507812 103.425781 48.488281 C 104.152344 48.148438 104.941406 47.972656 105.742188 47.96875 C 106.78125 47.96875 107.800781 48.277344 108.667969 48.851562 C 108.910156 49.015625 108.976562 49.34375 108.820312 49.589844 L 105.898438 54.195312 C 105.757812 54.417969 105.515625 54.550781 105.253906 54.550781 Z M 105.253906 54.550781 "/>
<path style=" stroke:none;fill-rule:nonzero;fill:rgb(18.431373%,18.039216%,25.490196%);fill-opacity:1;" d="M 112.800781 37.675781 C 112.800781 38.605469 112.050781 39.359375 111.128906 39.359375 C 110.203125 39.359375 109.453125 38.605469 109.453125 37.675781 C 109.453125 36.75 110.203125 35.996094 111.128906 35.996094 C 112.050781 35.996094 112.800781 36.75 112.800781 37.675781 Z M 112.800781 37.675781 "/>
<path style=" stroke:none;fill-rule:nonzero;fill:rgb(18.431373%,18.039216%,25.490196%);fill-opacity:1;" d="M 105.394531 35.828125 C 102.945312 35.828125 100.960938 37.824219 100.960938 40.285156 L 100.960938 42.171875 L 103.269531 42.171875 L 104.371094 40.285156 L 104.699219 42.171875 L 111.699219 42.171875 L 109.824219 40.285156 C 109.824219 37.824219 107.839844 35.828125 105.394531 35.828125 Z M 105.394531 35.828125 "/>
<path style=" stroke:none;fill-rule:nonzero;fill:rgb(18.431373%,18.039216%,25.490196%);fill-opacity:1;" d="M 111.988281 36.523438 C 112.367188 35.324219 113.554688 34.570312 114.796875 34.742188 C 115.863281 34.921875 116.703125 35.785156 117.207031 36.746094 C 117.710938 37.710938 117.941406 38.789062 118.277344 39.820312 C 118.617188 40.851562 119.09375 41.890625 119.949219 42.558594 C 120.800781 43.230469 122.109375 43.410156 122.945312 42.722656 C 122.75 44.191406 121.640625 45.371094 120.191406 45.652344 C 118.746094 45.929688 117.28125 45.246094 116.558594 43.953125 C 116.117188 43.164062 116.003906 42.238281 115.871094 41.339844 C 115.742188 40.441406 115.570312 39.515625 115.042969 38.777344 C 114.515625 38.042969 113.527344 37.5625 112.691406 37.898438 Z M 111.988281 36.523438 "/>
<path style=" stroke:none;fill-rule:nonzero;fill:rgb(24.705882%,23.921569%,33.72549%);fill-opacity:1;" d="M 57.589844 39.09375 C 54.414062 39.089844 51.839844 36.5 51.839844 33.308594 C 51.839844 32.261719 51.839844 31.460938 51.84375 31.347656 C 51.890625 27.761719 52.789062 24.242188 54.460938 21.078125 C 51.714844 24.859375 50.203125 29.40625 50.140625 34.089844 C 50.136719 34.203125 50.136719 35.003906 50.136719 36.050781 C 50.136719 39.246094 52.710938 41.835938 55.886719 41.835938 C 58.460938 41.832031 60.722656 40.113281 61.421875 37.617188 C 60.371094 38.570312 59.003906 39.09375 57.589844 39.09375 Z M 57.589844 39.09375 "/>
<path style=" stroke:none;fill-rule:nonzero;fill:rgb(24.705882%,23.921569%,33.72549%);fill-opacity:1;" d="M 73.066406 23.847656 C 76.644531 24.019531 79.910156 25.949219 81.804688 29.007812 C 83.699219 32.066406 83.976562 35.867188 82.550781 39.175781 C 85.328125 35.894531 85.9375 31.285156 84.113281 27.386719 C 82.285156 23.488281 78.363281 21.027344 74.078125 21.09375 C 69.796875 21.160156 65.949219 23.738281 64.242188 27.691406 C 66.433594 25.101562 69.691406 23.683594 73.066406 23.847656 Z M 73.066406 23.847656 "/>
<path style=" stroke:none;fill-rule:nonzero;fill:rgb(24.705882%,23.921569%,33.72549%);fill-opacity:1;" d="M 74.835938 75.09375 C 71.597656 75.09375 68.957031 72.480469 68.90625 69.226562 C 68.832031 64.691406 68.796875 59.101562 68.796875 58.464844 C 68.796875 56.910156 69.019531 55.363281 69.457031 53.875 L 69.453125 53.875 C 69.714844 53.128906 70.027344 52.398438 70.390625 51.695312 C 69.273438 53.195312 68.382812 54.855469 67.75 56.617188 L 67.753906 56.617188 C 67.3125 58.109375 67.089844 59.652344 67.09375 61.207031 C 67.09375 61.84375 67.128906 67.433594 67.203125 71.96875 C 67.253906 75.226562 69.894531 77.835938 73.128906 77.835938 C 75.765625 77.835938 78.085938 76.085938 78.824219 73.539062 C 77.730469 74.539062 76.308594 75.09375 74.835938 75.09375 Z M 74.835938 75.09375 "/>
<path style=" stroke:none;fill-rule:nonzero;fill:rgb(100%,72.156863%,72.156863%);fill-opacity:1;" d="M 21.5625 99.871094 L 23.652344 99.871094 L 24.648438 91.765625 L 21.5625 91.765625 Z M 21.5625 99.871094 "/>
<path style=" stroke:none;fill-rule:nonzero;fill:rgb(18.431373%,18.039216%,25.490196%);fill-opacity:1;" d="M 27.683594 101.824219 L 21.117188 101.824219 L 21.117188 99.269531 L 25.144531 99.269531 C 26.546875 99.269531 27.683594 100.414062 27.683594 101.824219 Z M 27.683594 101.824219 "/>
<path style=" stroke:none;fill-rule:nonzero;fill:rgb(100%,72.156863%,72.156863%);fill-opacity:1;" d="M 14.066406 99.871094 L 16.15625 99.871094 L 17.148438 91.765625 L 14.066406 91.765625 Z M 14.066406 99.871094 "/>
<path style=" stroke:none;fill-rule:nonzero;fill:rgb(18.431373%,18.039216%,25.490196%);fill-opacity:1;" d="M 20.183594 101.824219 L 13.617188 101.824219 L 13.617188 99.269531 L 17.648438 99.269531 C 19.046875 99.269531 20.183594 100.414062 20.183594 101.824219 Z M 20.183594 101.824219 "/>
<path style=" stroke:none;fill-rule:nonzero;fill:rgb(18.431373%,18.039216%,25.490196%);fill-opacity:1;" d="M 15.890625 97.378906 L 13.851562 97.269531 C 13.636719 97.257812 13.4375 97.164062 13.296875 97.003906 C 13.15625 96.84375 13.085938 96.632812 13.097656 96.417969 L 15.539062 69.253906 L 26.769531 72.304688 L 27.851562 72.003906 L 24.46875 96.054688 C 24.410156 96.425781 24.101562 96.707031 23.726562 96.730469 L 21.523438 96.832031 C 21.304688 96.847656 21.085938 96.765625 20.925781 96.609375 C 20.765625 96.453125 20.679688 96.234375 20.683594 96.011719 L 21.082031 81.578125 C 21.085938 81.4375 20.984375 81.320312 20.847656 81.304688 C 20.710938 81.289062 20.585938 81.382812 20.558594 81.515625 L 16.714844 96.742188 C 16.636719 97.113281 16.3125 97.378906 15.933594 97.378906 C 15.921875 97.378906 15.90625 97.378906 15.890625 97.378906 Z M 15.890625 97.378906 "/>
<path style=" stroke:none;fill-rule:nonzero;fill:rgb(100%,72.156863%,72.156863%);fill-opacity:1;" d="M 26.125 42.816406 C 26.125 45.140625 24.25 47.027344 21.941406 47.027344 C 19.628906 47.027344 17.753906 45.140625 17.753906 42.816406 C 17.753906 40.488281 19.628906 38.605469 21.941406 38.605469 C 24.25 38.605469 26.125 40.488281 26.125 42.816406 Z M 26.125 42.816406 "/>
<path style=" stroke:none;fill-rule:nonzero;fill:rgb(80%,80%,80%);fill-opacity:1;" d="M 14.972656 55.1875 L 15.429688 65.175781 L 15.597656 68.808594 C 15.609375 69.132812 15.816406 69.414062 16.121094 69.523438 L 26.914062 73.457031 C 27.003906 73.488281 27.09375 73.507812 27.1875 73.503906 C 27.402344 73.507812 27.609375 73.417969 27.757812 73.265625 C 27.910156 73.109375 27.988281 72.902344 27.980469 72.683594 L 27.539062 54.726562 C 27.480469 51.683594 25.28125 49.117188 22.300781 48.609375 C 22.195312 48.59375 22.089844 48.578125 21.984375 48.5625 C 20.171875 48.335938 18.351562 48.929688 17.011719 50.179688 C 15.628906 51.460938 14.878906 53.296875 14.972656 55.1875 Z M 14.972656 55.1875 "/>
<path style=" stroke:none;fill-rule:nonzero;fill:rgb(100%,72.156863%,72.156863%);fill-opacity:1;" d="M 32.070312 71.464844 C 31.550781 71.300781 31.140625 70.902344 30.960938 70.390625 C 30.78125 69.875 30.851562 69.304688 31.15625 68.855469 L 27.496094 63.957031 L 30.652344 63.761719 L 33.644531 68.441406 C 34.304688 68.957031 34.503906 69.871094 34.117188 70.617188 C 33.730469 71.363281 32.867188 71.71875 32.070312 71.464844 Z M 32.070312 71.464844 "/>
<path style=" stroke:none;fill-rule:nonzero;fill:rgb(80%,80%,80%);fill-opacity:1;" d="M 29.496094 67.96875 C 29.300781 67.886719 29.144531 67.730469 29.0625 67.535156 L 23.550781 54.320312 C 23.09375 53.230469 23.601562 51.976562 24.6875 51.523438 C 25.769531 51.0625 27.011719 51.578125 27.464844 52.667969 L 32.980469 65.882812 C 33.148438 66.292969 32.960938 66.761719 32.554688 66.929688 L 30.105469 67.964844 C 29.914062 68.046875 29.691406 68.046875 29.496094 67.96875 Z M 29.496094 67.96875 "/>
<path style=" stroke:none;fill-rule:nonzero;fill:rgb(24.705882%,23.921569%,33.72549%);fill-opacity:1;" d="M 20.59375 67.5 L 25.890625 57.300781 C 26.101562 56.890625 26.605469 56.734375 27.011719 56.945312 L 34.699219 60.984375 C 35.105469 61.199219 35.261719 61.703125 35.050781 62.113281 L 29.753906 72.3125 C 29.542969 72.722656 29.039062 72.882812 28.632812 72.667969 L 20.945312 68.628906 C 20.539062 68.414062 20.382812 67.910156 20.59375 67.5 Z M 20.59375 67.5 "/>
<path style=" stroke:none;fill-rule:nonzero;fill:rgb(100%,72.156863%,72.156863%);fill-opacity:1;" d="M 24.144531 62.839844 C 23.957031 62.332031 23.535156 61.941406 23.015625 61.789062 C 22.492188 61.640625 21.933594 61.746094 21.5 62.078125 L 16.425781 58.691406 L 16.417969 61.875 L 21.238281 64.601562 C 21.789062 65.234375 22.710938 65.378906 23.425781 64.949219 C 24.140625 64.515625 24.445312 63.625 24.144531 62.839844 Z M 24.144531 62.839844 "/>
<path style=" stroke:none;fill-rule:nonzero;fill:rgb(80%,80%,80%);fill-opacity:1;" d="M 17.730469 63.558594 L 13.582031 60.253906 C 12.671875 59.945312 11.96875 59.207031 11.703125 58.277344 C 11.4375 57.351562 11.640625 56.347656 12.25 55.601562 L 16.015625 50.636719 C 16.554688 49.96875 17.5 49.804688 18.230469 50.25 C 18.964844 50.691406 19.261719 51.605469 18.933594 52.398438 L 15.953125 57.300781 L 20.332031 59.390625 C 20.539062 59.488281 20.691406 59.671875 20.757812 59.890625 C 20.820312 60.113281 20.785156 60.347656 20.664062 60.542969 L 18.898438 63.355469 C 18.777344 63.546875 18.578125 63.679688 18.359375 63.71875 C 18.351562 63.71875 18.347656 63.71875 18.34375 63.722656 C 18.125 63.753906 17.902344 63.695312 17.730469 63.558594 Z M 17.730469 63.558594 "/>
<path style=" stroke:none;fill-rule:nonzero;fill:rgb(18.431373%,18.039216%,25.490196%);fill-opacity:1;" d="M 18.777344 45.636719 C 18.738281 45.527344 18.753906 45.410156 18.816406 45.316406 C 18.878906 45.21875 18.980469 45.160156 19.09375 45.152344 C 19.320312 45.164062 19.535156 45.269531 19.683594 45.445312 C 19.835938 45.621094 20.011719 45.773438 20.207031 45.898438 C 20.410156 46 20.6875 45.984375 20.800781 45.789062 C 20.910156 45.605469 20.835938 45.359375 20.769531 45.148438 C 20.601562 44.601562 20.507812 44.039062 20.492188 43.472656 C 20.472656 42.835938 20.5625 42.175781 20.910156 41.679688 C 21.363281 41.042969 22.167969 40.800781 22.929688 40.816406 C 23.691406 40.835938 24.441406 41.070312 25.199219 41.222656 C 25.457031 41.273438 25.765625 41.300781 25.9375 41.097656 C 26.125 40.878906 26.058594 40.53125 25.976562 40.238281 C 25.773438 39.480469 25.554688 38.699219 25.082031 38.085938 C 24.566406 37.449219 23.832031 37.035156 23.023438 36.921875 C 22.25 36.828125 21.464844 36.914062 20.730469 37.183594 C 19.535156 37.5625 18.484375 38.300781 17.71875 39.296875 C 16.925781 40.355469 16.585938 41.6875 16.765625 43 C 16.945312 44.140625 17.546875 45.175781 18.449219 45.890625 Z M 18.777344 45.636719 "/>
<path style=" stroke:none;fill-rule:nonzero;fill:rgb(24.705882%,23.921569%,33.72549%);fill-opacity:1;" d="M 71.789062 99.90625 C 69.53125 98.917969 67.867188 96.917969 67.292969 94.507812 C 66.722656 92.097656 67.308594 89.558594 68.878906 87.648438 C 66.429688 89.449219 65.230469 92.511719 65.804688 95.507812 C 66.378906 98.503906 68.617188 100.902344 71.558594 101.65625 C 74.5 102.414062 77.609375 101.394531 79.542969 99.042969 C 77.292969 100.695312 74.34375 101.023438 71.789062 99.90625 Z M 71.789062 99.90625 "/>
</g>
</svg>
